<?xml version="1.0" encoding="utf-8"?>
<svg version="1.1" id="Layer_1" x="0px" y="0px" viewBox="0 0 30 30" style="enable-background:new 0 0 30 30;" xmlns="http://www.w3.org/2000/svg">
  <style type="text/css">
	.st0{fill:#000000;}
</style>
  <path class="st0" d="M 14.809 0.276 C 6.8 0.276 0.322 6.808 0.322 14.886 C 0.322 22.962 6.8 29.495 14.809 29.495 C 22.818 29.495 29.355 22.962 29.355 14.886 C 29.355 6.808 22.818 0.276 14.809 0.276 Z M 18.696 14.826 L 16.164 14.826 C 16.164 18.865 16.164 23.853 16.164 23.853 L 12.453 23.853 C 12.453 23.853 12.453 18.923 12.453 14.826 L 10.687 14.826 L 10.687 11.619 L 12.453 11.619 L 12.453 9.541 C 12.453 8.056 13.16 5.74 16.222 5.74 L 18.989 5.74 L 18.989 8.828 C 18.989 8.828 17.341 8.828 16.988 8.828 C 16.635 8.828 16.222 9.006 16.222 9.719 L 16.222 11.619 L 19.049 11.619 L 18.696 14.826 Z"/>
</svg>