<?xml version="1.0" encoding="iso-8859-1"?>
<!-- Generator: Adobe Illustrator 19.0.0, SVG Export Plug-In . SVG Version: 6.00 Build 0)  -->
<svg xmlns="http://www.w3.org/2000/svg" xmlns:xlink="http://www.w3.org/1999/xlink" version="1.1" id="Capa_1" x="0px" y="0px" viewBox="0 0 512 512" style="enable-background:new 0 0 512 512;" xml:space="preserve">
<g transform="matrix(1.25 0 0 -1.25 0 45)">
	<g>
		<g>
			<path style="fill:#CCD6DD;" d="M398.222-157.422c0-106.826-150.448-216.178-193.422-216.178     c-42.985,0-193.422,109.352-193.422,216.178S97.974,36,204.8,36S398.222-50.596,398.222-157.422"/>
			<g>
				<path style="fill:#292F33;" d="M153.634-132.96c35.544-35.544,49.948-78.768,32.176-96.54      c-17.761-17.772-60.996-3.379-96.54,32.176c-35.556,35.544-49.96,78.768-32.176,96.54      C74.866-83.012,118.09-97.416,153.634-132.96"/>
				<path style="fill:#292F33;" d="M255.966-132.846c-35.544-35.544-49.948-78.768-32.176-96.54      c17.761-17.783,60.996-3.379,96.54,32.176c35.556,35.556,49.96,78.768,32.176,96.54      C334.734-82.898,291.51-97.302,255.966-132.846"/>
				<path style="fill:#292F33;" d="M204.8-316.711c-26.704,0-40.676,13.198-42.177,14.711c-4.449,4.449-4.449,11.639,0,16.088      c4.403,4.403,11.526,4.449,15.974,0.114c0.592-0.535,9.17-8.158,26.203-8.158c17.283,0,25.862,7.839,26.226,8.181      c4.528,4.255,11.685,4.13,16.02-0.341c4.312-4.46,4.324-11.492-0.068-15.883C245.476-303.513,231.504-316.711,204.8-316.711"/>
			</g>
		</g>
	</g>
</g>
<g>
</g>
<g>
</g>
<g>
</g>
<g>
</g>
<g>
</g>
<g>
</g>
<g>
</g>
<g>
</g>
<g>
</g>
<g>
</g>
<g>
</g>
<g>
</g>
<g>
</g>
<g>
</g>
<g>
</g>
</svg>
