<?xml version="1.0" encoding="iso-8859-1"?>
<!-- Generator: Adobe Illustrator 19.0.0, SVG Export Plug-In . SVG Version: 6.00 Build 0)  -->
<svg xmlns="http://www.w3.org/2000/svg" xmlns:xlink="http://www.w3.org/1999/xlink" version="1.1" id="Capa_1" x="0px" y="0px" viewBox="0 0 512 512" style="enable-background:new 0 0 512 512;" xml:space="preserve">
<g transform="matrix(1.25 0 0 -1.25 0 45)">
	<g>
		<g>
			<path style="fill:#FFCC4D;" d="M409.6-168.8c0-113.106-91.694-204.8-204.8-204.8C91.705-373.6,0-281.906,0-168.8     C0-55.705,91.705,36,204.8,36C317.906,36,409.6-55.705,409.6-168.8"/>
			<path style="fill:#664500;" d="M311.012-221.468c-2.025,1.832-5.052,1.946-7.225,0.33c-0.444-0.33-44.624-32.996-98.987-32.996     c-54.226,0-98.554,32.666-98.987,32.996c-2.173,1.616-5.2,1.479-7.225-0.33c-2.014-1.82-2.469-4.824-1.07-7.145     c1.468-2.446,36.602-59.654,107.281-59.654s105.825,57.207,107.281,59.654C313.481-226.281,313.037-223.288,311.012-221.468"/>
			<path style="fill:#5DADEC;" d="M204.8-51.723c-79.838,0-150.209,10.206-150.209,33.496c0,23.279,70.372,39.276,150.209,39.276     S355.009,5.052,355.009-18.226C355.009-41.517,284.638-51.723,204.8-51.723 M204.8,33.133     c-106.45,0-198.394-17.465-198.394-57.39c0-39.913,91.944-60.234,198.394-60.234S403.194-64.17,403.194-24.257     C403.194,15.668,311.25,33.133,204.8,33.133"/>
			<g>
				<path style="fill:#664500;" d="M295.822-180.178c-4.767,0-9.205,3.015-10.786,7.782c-2.31,6.815-11.594,26.351-23.347,26.351      c-12.083,0-21.493-20.787-23.347-26.351c-1.991-5.962-8.374-9.193-14.382-7.191c-5.962,1.98-9.182,8.42-7.191,14.382      c1.422,4.289,14.825,41.916,44.919,41.916c30.094,0,43.497-37.626,44.919-41.916c1.991-5.962-1.229-12.402-7.191-14.382      C298.223-179.984,297.017-180.178,295.822-180.178"/>
				<path style="fill:#664500;" d="M182.044-180.178c-4.767,0-9.205,3.015-10.798,7.782c-2.31,6.815-11.571,26.351-23.336,26.351      c-12.083,0-21.481-20.787-23.336-26.351c-1.991-5.962-8.408-9.193-14.393-7.191c-5.962,1.98-9.193,8.42-7.202,14.382      c1.434,4.289,14.837,41.916,44.931,41.916s43.497-37.626,44.931-41.916c1.991-5.962-1.24-12.402-7.202-14.382      C184.445-179.984,183.239-180.178,182.044-180.178"/>
			</g>
			<path style="fill:#FFCC4D;" d="M323.948-2.4c-7.509,5.04-15.314,10.354-22.767,14.336C272.452,27.296,239.65,36,204.8,36     c-33.337,0-64.796-7.953-92.615-22.084C99.794,7.624,90.783,2.561,87.484-2.4H323.948z"/>
		</g>
	</g>
</g>
<g>
</g>
<g>
</g>
<g>
</g>
<g>
</g>
<g>
</g>
<g>
</g>
<g>
</g>
<g>
</g>
<g>
</g>
<g>
</g>
<g>
</g>
<g>
</g>
<g>
</g>
<g>
</g>
<g>
</g>
</svg>
