<?xml version="1.0" encoding="iso-8859-1"?>
<!-- Generator: Adobe Illustrator 19.0.0, SVG Export Plug-In . SVG Version: 6.00 Build 0)  -->
<svg xmlns="http://www.w3.org/2000/svg" xmlns:xlink="http://www.w3.org/1999/xlink" version="1.1" id="Capa_1" x="0px" y="0px" viewBox="0 0 512 512" style="enable-background:new 0 0 512 512;" xml:space="preserve">
<g transform="matrix(1.25 0 0 -1.25 0 45)">
	<g>
		<g>
			<path style="fill:#FFCC4D;" d="M409.6-168.8c0-113.106-91.694-204.8-204.8-204.8C91.705-373.6,0-281.906,0-168.8     C0-55.705,91.705,36,204.8,36C317.906,36,409.6-55.705,409.6-168.8"/>
			<path id="SVGCleanerId_0" style="fill:#664500;" d="M159.289-157.422c0-22.005-12.732-39.822-28.444-39.822     S102.4-179.427,102.4-157.422c0,21.993,12.732,39.822,28.444,39.822S159.289-135.429,159.289-157.422"/>
			<g transform="translate(13)">
				<path id="SVGCleanerId_0_1_" style="fill:#664500;" d="M307.2-157.422c0-22.005-12.732-39.822-28.444-39.822      s-28.444,17.818-28.444,39.822c0,21.993,12.732,39.822,28.444,39.822S307.2-135.429,307.2-157.422"/>
			</g>
			<g>
				<path style="fill:#664500;" d="M68.255-117.6c-2.367,0-4.767,0.74-6.815,2.276c-5.029,3.766-6.042,10.9-2.276,15.929      c37.114,49.493,86.653,50.062,88.747,50.062c6.281,0,11.378-5.097,11.378-11.378c0-6.269-5.063-11.355-11.332-11.378      c-1.764-0.023-40.607-0.978-70.588-40.96C75.127-116.03,71.714-117.6,68.255-117.6"/>
				<path style="fill:#664500;" d="M341.333-117.6c-3.47,0-6.884,1.57-9.114,4.551c-30.037,40.061-68.961,40.949-70.61,40.96      c-6.258,0.068-11.31,5.188-11.275,11.435c0.034,6.269,5.086,11.321,11.344,11.321c2.094,0,51.621-0.569,88.747-50.062      c3.777-5.029,2.753-12.163-2.276-15.929C346.101-116.86,343.711-117.6,341.333-117.6"/>
				<path style="fill:#664500;" d="M267.207-286.89c-0.137,0.501-13.039,49.823-62.407,49.823      c-49.391,0-62.293-49.323-62.407-49.823c-0.603-2.423,0.489-4.904,2.628-6.19c2.139-1.274,4.927-0.978,6.781,0.683      c0.114,0.08,11.537,9.819,52.998,9.819c40.835,0,52.531-9.444,52.975-9.819c1.081-1.024,2.492-1.559,3.914-1.559      c0.956,0,1.923,0.239,2.799,0.728C266.718-291.953,267.833-289.37,267.207-286.89"/>
			</g>
			<path style="fill:#5DADEC;" d="M182.044-316.711c0-31.425-25.463-56.889-56.889-56.889s-56.889,25.463-56.889,56.889     s45.511,113.778,56.889,113.778S182.044-285.286,182.044-316.711"/>
		</g>
	</g>
</g>
<g>
</g>
<g>
</g>
<g>
</g>
<g>
</g>
<g>
</g>
<g>
</g>
<g>
</g>
<g>
</g>
<g>
</g>
<g>
</g>
<g>
</g>
<g>
</g>
<g>
</g>
<g>
</g>
<g>
</g>
</svg>
