<?xml version="1.0" encoding="iso-8859-1"?>
<!-- Generator: Adobe Illustrator 19.0.0, SVG Export Plug-In . SVG Version: 6.00 Build 0)  -->
<svg xmlns="http://www.w3.org/2000/svg" xmlns:xlink="http://www.w3.org/1999/xlink" version="1.1" id="Capa_1" x="0px" y="0px" viewBox="0 0 512 512" style="enable-background:new 0 0 512 512;" xml:space="preserve">
<g transform="matrix(1.25 0 0 -1.25 0 45)">
	<g>
		<g>
			<path style="fill:#FFCC4D;" d="M409.6-168.8c0-113.106-91.694-204.8-204.8-204.8C91.705-373.6,0-281.906,0-168.8     C0-55.705,91.705,36,204.8,36C317.906,36,409.6-55.705,409.6-168.8"/>
			<path style="fill:#664500;" d="M307.2-191.556H102.4c-25.134,0-45.511-20.378-45.511-45.511s20.378-45.511,45.511-45.511h204.8     c25.145,0,45.511,20.378,45.511,45.511S332.345-191.556,307.2-191.556"/>
			<g>
				<path style="fill:#F5F8FA;" d="M273.067-214.311h-56.889v-45.511h56.889V-214.311z"/>
				<path style="fill:#F5F8FA;" d="M307.2-214.311h-11.378v-45.511H307.2c12.572,0,22.756,10.194,22.756,22.756      C329.956-224.494,319.772-214.311,307.2-214.311"/>
				<path style="fill:#F5F8FA;" d="M102.4-214.311c-12.561,0-22.756-10.183-22.756-22.756c0-12.561,10.194-22.756,22.756-22.756      h11.378v45.511H102.4z"/>
				<path style="fill:#F5F8FA;" d="M136.533-259.822h56.889v45.511h-56.889V-259.822z"/>
			</g>
			<path id="SVGCleanerId_0" style="fill:#664500;" d="M164.978-117.6c0-22.005-12.732-39.822-28.444-39.822     s-28.444,17.818-28.444,39.822c0,21.993,12.732,39.822,28.444,39.822S164.978-95.607,164.978-117.6"/>
			<g transform="translate(12)">
				<path id="SVGCleanerId_0_1_" style="fill:#664500;" d="M301.511-117.6c0-22.005-12.732-39.822-28.444-39.822      s-28.444,17.818-28.444,39.822c0,21.993,12.732,39.822,28.444,39.822S301.511-95.607,301.511-117.6"/>
			</g>
		</g>
	</g>
</g>
<g>
</g>
<g>
</g>
<g>
</g>
<g>
</g>
<g>
</g>
<g>
</g>
<g>
</g>
<g>
</g>
<g>
</g>
<g>
</g>
<g>
</g>
<g>
</g>
<g>
</g>
<g>
</g>
<g>
</g>
</svg>
