<?xml version="1.0" encoding="iso-8859-1"?>
<!-- Generator: Adobe Illustrator 19.0.0, SVG Export Plug-In . SVG Version: 6.00 Build 0)  -->
<svg xmlns="http://www.w3.org/2000/svg" xmlns:xlink="http://www.w3.org/1999/xlink" version="1.1" id="Capa_1" x="0px" y="0px" viewBox="0 0 512 512" style="enable-background:new 0 0 512 512;" xml:space="preserve">
<g transform="matrix(1.25 0 0 -1.25 0 45)">
	<g>
		<g>
			<path style="fill:#FFCC4D;" d="M409.6-168.8c0-113.106-91.694-204.8-204.8-204.8C91.705-373.6,0-281.906,0-168.8     C0-55.705,91.705,36,204.8,36C317.906,36,409.6-55.705,409.6-168.8"/>
			<g>
				<path style="fill:#664500;" d="M159.289-140.356c0-22.005-12.732-39.822-28.444-39.822S102.4-162.36,102.4-140.356      c0,21.993,12.732,39.822,28.444,39.822S159.289-118.362,159.289-140.356"/>
				<path style="fill:#664500;" d="M323.777-166.49c-0.671,1.536-17.055,37.513-50.711,37.513      c-33.644,0-50.028-35.977-50.711-37.513c-1.047-2.355-0.364-5.109,1.638-6.724c1.991-1.616,4.847-1.673,6.952-0.159      c0.137,0.102,14.359,10.263,42.121,10.263c27.603,0,41.802-10.024,42.121-10.251c1.001-0.751,2.207-1.126,3.391-1.126      c1.252,0,2.514,0.421,3.55,1.24C324.142-171.633,324.836-168.857,323.777-166.49"/>
				<path style="fill:#664500;" d="M68.255-89.156c-2.367,0-4.767,0.74-6.815,2.276c-5.029,3.766-6.042,10.9-2.276,15.929      c37.114,49.493,86.653,50.062,88.747,50.062c6.281,0,11.378-5.097,11.378-11.378c0-6.269-5.063-11.355-11.332-11.378      c-1.764-0.023-40.607-0.978-70.588-40.96C75.127-87.585,71.714-89.156,68.255-89.156"/>
				<path style="fill:#664500;" d="M329.956-123.289c-3.47,0-6.884,1.57-9.114,4.551c-29.491,39.322-79.201,29.901-79.69,29.81      c-6.224-1.263-12.151,2.765-13.392,8.92c-1.229,6.155,2.776,12.151,8.932,13.38c2.617,0.546,64.364,12.197,102.354-38.457      c3.777-5.029,2.753-12.163-2.276-15.929C334.723-122.549,332.334-123.289,329.956-123.289"/>
				<path style="fill:#664500;" d="M237.466-282.578c15.189,4.688,29.912,13.153,29.912,28.444      c0,29.798-55.888,33.769-62.259,34.122c-3.118,0.296-5.791-2.196-5.996-5.325c-0.193-3.106,2.162-5.803,5.279-6.03      c0.398-0.023,40.22-3.402,40.22-22.767s-39.822-22.744-40.22-22.767c-0.159-0.011-0.284-0.102-0.421-0.125      c-0.603-0.068-1.149-0.193-1.673-0.455c-0.08-0.034-0.137-0.091-0.205-0.125c-0.535-0.296-1.013-0.637-1.422-1.104      c-0.159-0.171-0.273-0.353-0.41-0.546c-0.25-0.364-0.501-0.717-0.671-1.161c-0.137-0.33-0.205-0.683-0.273-1.035      c-0.057-0.273-0.193-0.501-0.205-0.774c-0.011-0.114,0.046-0.228,0.046-0.353s-0.057-0.239-0.046-0.353      c0.011-0.284,0.148-0.512,0.205-0.785c0.068-0.353,0.125-0.683,0.262-1.013c0.148-0.353,0.353-0.649,0.558-0.956      c0.193-0.284,0.364-0.569,0.603-0.819c0.25-0.262,0.569-0.466,0.876-0.683c0.284-0.193,0.523-0.387,0.842-0.535      c0.364-0.171,0.751-0.239,1.138-0.307c0.273-0.068,0.512-0.205,0.796-0.228c0.398-0.023,40.22-3.402,40.22-22.767      c0-19.365-39.822-22.744-40.22-22.767c-3.118-0.228-5.473-2.924-5.279-6.03c0.193-3.015,2.697-5.336,5.666-5.336      c0.114,0,0.228,0,0.33,0.011c6.372,0.353,62.259,4.324,62.259,34.122C267.378-295.73,252.655-287.265,237.466-282.578"/>
			</g>
			<path style="fill:#E75A70;" d="M402.819-273.726c8.408,17.249,1.252,38.081-15.986,46.49c-10.49,5.109-22.255,4.449-31.778-0.683     c-1.82,10.661-8.533,20.355-19.001,25.463c-17.271,8.42-38.093,1.24-46.501-16.009c-1.206-2.435-2.048-4.961-2.628-7.498     c-8.806-29.07,7.282-72.146,24.951-90.431c25.293-2.662,69.143,11.139,86.642,35.965     C400.168-278.391,401.624-276.172,402.819-273.726"/>
		</g>
	</g>
</g>
<g>
</g>
<g>
</g>
<g>
</g>
<g>
</g>
<g>
</g>
<g>
</g>
<g>
</g>
<g>
</g>
<g>
</g>
<g>
</g>
<g>
</g>
<g>
</g>
<g>
</g>
<g>
</g>
<g>
</g>
</svg>
