<?xml version="1.0" encoding="iso-8859-1"?>
<!-- Generator: Adobe Illustrator 19.0.0, SVG Export Plug-In . SVG Version: 6.00 Build 0)  -->
<svg xmlns="http://www.w3.org/2000/svg" xmlns:xlink="http://www.w3.org/1999/xlink" version="1.1" id="Capa_1" x="0px" y="0px" viewBox="0 0 512 512" style="enable-background:new 0 0 512 512;" xml:space="preserve">
<g transform="matrix(1.25 0 0 -1.25 0 45)">
	<g>
		<g>
			<path style="fill:#FFCC4D;" d="M409.6-168.8c0-113.106-91.694-204.8-204.8-204.8C91.705-373.6,0-281.906,0-168.8     C0-55.705,91.705,36,204.8,36C317.906,36,409.6-55.705,409.6-168.8"/>
			<g>
				<path style="fill:#664500;" d="M196.983-164.385c-2.003,1.627-4.858,1.673-6.94,0.159c-0.148-0.114-14.347-10.263-42.121-10.263      s-41.984,10.149-42.109,10.24c-2.071,1.547-4.938,1.513-6.952-0.102c-2.025-1.616-2.708-4.392-1.661-6.758      c0.694-1.536,17.067-37.513,50.722-37.513s50.028,35.977,50.711,37.513C199.669-168.754,198.986-166.001,196.983-164.385"/>
				<path style="fill:#664500;" d="M310.761-164.385c-2.003,1.627-4.847,1.684-6.94,0.159c-0.137-0.114-14.347-10.263-42.121-10.263      c-27.773,0-41.995,10.149-42.109,10.24c-2.071,1.547-4.927,1.513-6.952-0.102s-2.708-4.392-1.661-6.758      c0.683-1.536,17.067-37.513,50.722-37.513s50.028,35.977,50.711,37.513C313.446-168.754,312.775-166.001,310.761-164.385"/>
				<path style="fill:#664500;" d="M250.311-282.578h-91.022c-6.281,0-11.378,5.086-11.378,11.378s5.097,11.378,11.378,11.378      h91.022c6.292,0,11.378-5.086,11.378-11.378S256.603-282.578,250.311-282.578"/>
				<path style="fill:#664500;" d="M68.267-123.289c-6.281,0-11.378,5.097-11.378,11.378c0,6.269,5.063,11.355,11.332,11.378      c1.764,0.023,40.596,0.978,70.588,40.96c3.766,5.006,10.9,6.053,15.929,2.276c5.029-3.766,6.042-10.9,2.276-15.929      C119.899-122.72,70.36-123.289,68.267-123.289"/>
				<path style="fill:#664500;" d="M341.333-123.289c-2.094,0-51.621,0.569-88.747,50.062c-3.777,5.029-2.753,12.163,2.276,15.929      c5.029,3.789,12.151,2.753,15.929-2.276c30.037-40.061,68.961-40.949,70.611-40.96c6.258-0.068,11.31-5.188,11.275-11.435      C352.643-118.237,347.591-123.289,341.333-123.289"/>
			</g>
		</g>
	</g>
</g>
<g>
</g>
<g>
</g>
<g>
</g>
<g>
</g>
<g>
</g>
<g>
</g>
<g>
</g>
<g>
</g>
<g>
</g>
<g>
</g>
<g>
</g>
<g>
</g>
<g>
</g>
<g>
</g>
<g>
</g>
</svg>
