<?xml version="1.0" encoding="iso-8859-1"?>
<!-- Generator: Adobe Illustrator 19.0.0, SVG Export Plug-In . SVG Version: 6.00 Build 0)  -->
<svg xmlns="http://www.w3.org/2000/svg" xmlns:xlink="http://www.w3.org/1999/xlink" version="1.1" id="Capa_1" x="0px" y="0px" viewBox="0 0 512 512" style="enable-background:new 0 0 512 512;" xml:space="preserve">
<g transform="matrix(1.25 0 0 -1.25 0 45)">
	<g>
		<g>
			<path style="fill:#77B255;" d="M409.6-168.8c0-113.1-91.7-204.8-204.8-204.8S0-281.9,0-168.8S91.7,36,204.8,36     C317.9,36,409.6-55.7,409.6-168.8"/>
			<g>
				<path style="fill:#292F33;" d="M173.818-259.47l-15,22.7c12.8,8.4,28.9,13.1,45.4,13.1c16.6,0,32.2-4.5,45.1-12.9l-14.9-22.8      c-8.4,5.5-19.1,8.5-30.2,8.5C193.018-250.87,182.218-253.97,173.818-259.47z"/>
				<path style="fill:#292F33;" d="M319.041-112.336c-2.8,3.4-77,17.1-77.7,17.1c-1.3,0-2.9-1-3.1-2.3c-2.5-11.7-0.6-23.6,5.3-33.5      c5.9-10,15.2-16.7,26.1-19c2.7-0.6,5.4-0.8,8-0.8c19.9,0,37.5,15.2,41.9,36.2C319.741-113.936,319.541-112.936,319.041-112.336"/>
				<path style="fill:#292F33;" d="M167.967-95.234c-0.6,0-74.9-13.7-77.7-17.1c-0.5-0.7-0.8-1.6-0.6-2.4      c4.4-20.9,22.1-36.1,41.9-36.1c2.7,0,5.4,0.3,8,0.8c22.4,4.7,36.5,28.3,31.4,52.5C170.867-96.234,169.367-95.234,167.967-95.234      "/>
			</g>
			<g>
				<path style="fill:#3E721D;" d="M132.658-301.347c-5.1,0-9.8,3.2-11.4,8.2c-2.1,6.3,1.3,13.1,7.6,15.2c1.1,0.4,27.9,10,27.9,36.8      s-26.8,36.4-28,36.8c-6.3,2.2-9.6,9-7.5,15.3s8.9,9.7,15.2,7.6c1.8-0.6,44.4-15.3,44.4-59.6s-42.6-59-44.4-59.6      C135.158-301.147,133.858-301.347,132.658-301.347"/>
				<path style="fill:#3E721D;" d="M277.163-301.347c-1.3,0-2.5,0.2-3.8,0.6c-1.8,0.6-44.4,15.3-44.4,59.6s42.6,59,44.4,59.6      c6.4,2.1,13.1-1.3,15.2-7.6c2.1-6.3-1.3-13.1-7.6-15.2c-1.1-0.4-28-10-28-36.8s26.8-36.4,28-36.8c6.3-2.2,9.6-9,7.5-15.3      C286.863-298.147,282.163-301.347,277.163-301.347"/>
			</g>
		</g>
	</g>
</g>
<g>
</g>
<g>
</g>
<g>
</g>
<g>
</g>
<g>
</g>
<g>
</g>
<g>
</g>
<g>
</g>
<g>
</g>
<g>
</g>
<g>
</g>
<g>
</g>
<g>
</g>
<g>
</g>
<g>
</g>
</svg>
