<?xml version="1.0" encoding="iso-8859-1"?>
<!-- Generator: Adobe Illustrator 19.0.0, SVG Export Plug-In . SVG Version: 6.00 Build 0)  -->
<svg xmlns="http://www.w3.org/2000/svg" xmlns:xlink="http://www.w3.org/1999/xlink" version="1.1" id="Capa_1" x="0px" y="0px" viewBox="0 0 512 512" style="enable-background:new 0 0 512 512;" xml:space="preserve">
<g transform="matrix(1.25 0 0 -1.25 0 45)">
	<g>
		<g>
			<path style="fill:#FFCC4D;" d="M409.6-168.8c0-113.106-91.694-204.8-204.8-204.8C91.705-373.6,0-281.906,0-168.8     C0-55.705,91.705,36,204.8,36C317.906,36,409.6-55.705,409.6-168.8"/>
			<g>
				<path style="fill:#664500;" d="M238.933-259.822c0-18.853-15.28-34.133-34.133-34.133s-34.133,15.28-34.133,34.133      c0,18.842,15.28,34.133,34.133,34.133S238.933-240.981,238.933-259.822"/>
				<path style="fill:#664500;" d="M196.983-153.008c-2.003,1.627-4.858,1.673-6.94,0.159c-0.148-0.114-14.347-10.263-42.121-10.263      s-41.984,10.149-42.109,10.24c-2.071,1.547-4.938,1.513-6.952-0.102c-2.025-1.616-2.708-4.392-1.661-6.758      c0.694-1.536,17.067-37.513,50.722-37.513s50.028,35.977,50.711,37.513C199.669-157.377,198.986-154.623,196.983-153.008"/>
				<path style="fill:#664500;" d="M310.761-153.008c-2.003,1.627-4.847,1.684-6.94,0.159c-0.137-0.114-14.347-10.263-42.121-10.263      c-27.773,0-41.995,10.149-42.109,10.24c-2.071,1.547-4.927,1.513-6.952-0.102s-2.708-4.392-1.661-6.758      c0.683-1.536,17.067-37.513,50.722-37.513s50.028,35.977,50.711,37.513C313.446-157.377,312.775-154.623,310.761-153.008"/>
			</g>
			<g>
				<path style="fill:#2A6797;" d="M182.022-22.379h-22.79c-4.915,0-8.875,3.14-8.875,8.602c0,5.45,3.959,8.59,8.875,8.59h44.624      c1.775,0,6.406-0.808,6.406-6.133c0-2.594-0.535-3.823-2.037-5.871l-30.982-43.395h25.93c4.915,0,8.863-3.14,8.863-8.602      c0-5.45-3.948-8.59-8.863-8.59h-45.716c-4.369,0-8.055,2.185-8.055,6.69c0,2.185,1.092,4.221,1.775,5.325L182.022-22.379z"/>
				<path style="fill:#2A6797;" d="M267.401,9.683h-26.624c-5.734,0-10.354,3.664-10.354,10.035c0,6.383,4.619,10.047,10.354,10.047      h52.11c2.094,0,7.509-0.956,7.509-7.168c0-3.026-0.637-4.46-2.401-6.861l-36.17-50.677h30.288      c5.734,0,10.354-3.664,10.354-10.047c0-6.372-4.619-10.035-10.354-10.035h-53.396c-5.109,0-9.409,2.549-9.409,7.817      c0,2.549,1.274,4.938,2.071,6.201L267.401,9.683z"/>
				<path style="fill:#2A6797;" d="M358.423-28.74h-34.224c-7.373,0-13.312,4.71-13.312,12.902s5.939,12.914,13.312,12.914h67.004      c2.662,0,9.626-1.229,9.626-9.227c0-3.88-0.831-5.734-3.072-8.806l-46.512-65.149h38.935c7.361,0,13.312-4.71,13.312-12.902      c0-8.192-5.951-12.902-13.312-12.902h-68.642c-6.554,0-12.083,3.277-12.083,10.035c0,3.277,1.638,6.349,2.662,7.987      L358.423-28.74z"/>
			</g>
		</g>
	</g>
</g>
<g>
</g>
<g>
</g>
<g>
</g>
<g>
</g>
<g>
</g>
<g>
</g>
<g>
</g>
<g>
</g>
<g>
</g>
<g>
</g>
<g>
</g>
<g>
</g>
<g>
</g>
<g>
</g>
<g>
</g>
</svg>
