<?xml version="1.0" encoding="iso-8859-1"?>
<!-- Generator: Adobe Illustrator 19.0.0, SVG Export Plug-In . SVG Version: 6.00 Build 0)  -->
<svg xmlns="http://www.w3.org/2000/svg" xmlns:xlink="http://www.w3.org/1999/xlink" version="1.1" id="Capa_1" x="0px" y="0px" viewBox="0 0 512 512" style="enable-background:new 0 0 512 512;" xml:space="preserve">
<g transform="matrix(1.25 0 0 -1.25 0 45)">
	<g>
		<g>
			<path style="fill:#FFCC4D;" d="M409.6-168.8c0-113.106-91.694-204.8-204.8-204.8S0-281.906,0-168.8S91.694,36,204.8,36     S409.6-55.694,409.6-168.8"/>
			<path style="fill:#664500;" d="M119.637-232.755c0.512-2.037,13.289-49.823,85.163-49.823c71.885,0,84.662,47.787,85.163,49.823     c0.626,2.469-0.489,5.029-2.697,6.303c-2.219,1.263-4.995,0.887-6.815-0.876c-0.216-0.216-22.232-21.117-75.651-21.117     c-53.407,0-75.435,20.901-75.639,21.117c-1.092,1.07-2.549,1.638-4.005,1.638c-0.956,0-1.923-0.239-2.799-0.728     C120.127-227.691,119.012-230.274,119.637-232.755"/>
			<path id="SVGCleanerId_0" style="fill:#664500;" d="M164.978-117.6c0-22.005-12.732-39.822-28.444-39.822     s-28.444,17.818-28.444,39.822c0,21.993,12.732,39.822,28.444,39.822S164.978-95.607,164.978-117.6"/>
			<g transform="translate(12)">
				<path id="SVGCleanerId_0_1_" style="fill:#664500;" d="M301.511-117.6c0-22.005-12.732-39.822-28.444-39.822      s-28.444,17.818-28.444,39.822c0,21.993,12.732,39.822,28.444,39.822S301.511-95.607,301.511-117.6"/>
			</g>
		</g>
	</g>
</g>
<g>
</g>
<g>
</g>
<g>
</g>
<g>
</g>
<g>
</g>
<g>
</g>
<g>
</g>
<g>
</g>
<g>
</g>
<g>
</g>
<g>
</g>
<g>
</g>
<g>
</g>
<g>
</g>
<g>
</g>
</svg>
