<?xml version="1.0" encoding="iso-8859-1"?>
<!-- Generator: Adobe Illustrator 19.0.0, SVG Export Plug-In . SVG Version: 6.00 Build 0)  -->
<svg xmlns="http://www.w3.org/2000/svg" xmlns:xlink="http://www.w3.org/1999/xlink" version="1.1" id="Capa_1" x="0px" y="0px" viewBox="0 0 512 512" style="enable-background:new 0 0 512 512;" xml:space="preserve">
<g transform="matrix(1.25 0 0 -1.25 0 45)">
	<g>
		<g>
			<path style="fill:#FFCC4D;" d="M409.6-168.8c0-113.106-91.694-204.8-204.8-204.8C91.705-373.6,0-281.906,0-168.8     C0-55.705,91.705,36,204.8,36C317.906,36,409.6-55.705,409.6-168.8"/>
			<g>
				<path style="fill:#664500;" d="M323.777-166.49c-0.671,1.536-17.055,37.513-50.711,37.513      c-33.644,0-50.028-35.977-50.711-37.513c-1.047-2.355-0.364-5.109,1.638-6.724c1.991-1.616,4.847-1.673,6.952-0.159      c0.137,0.102,14.359,10.263,42.121,10.263c27.603,0,41.802-10.024,42.121-10.251c1.001-0.751,2.207-1.126,3.391-1.126      c1.252,0,2.514,0.421,3.55,1.24C324.142-171.633,324.836-168.857,323.777-166.49"/>
				<path style="fill:#664500;" d="M187.244-166.49c-0.683,1.536-17.055,37.513-50.711,37.513      c-33.644,0-50.028-35.977-50.711-37.513c-1.047-2.355-0.364-5.109,1.638-6.724c2.002-1.616,4.858-1.673,6.94-0.159      c0.148,0.102,14.359,10.263,42.132,10.263c27.602,0,41.802-10.024,42.121-10.251c1.001-0.751,2.207-1.126,3.391-1.126      c1.252,0,2.514,0.421,3.55,1.24C187.62-171.633,188.291-168.857,187.244-166.49"/>
				<path style="fill:#664500;" d="M352.711-146.044c-4.506,0-8.784,2.708-10.57,7.157c-20.23,50.574-70.793,61.224-71.305,61.338      c-6.155,1.229-10.16,7.225-8.92,13.38c1.229,6.167,7.214,10.138,13.38,8.92c2.571-0.501,63.215-13.289,87.984-75.184      c2.332-5.837-0.512-12.459-6.349-14.791C355.556-145.783,354.122-146.044,352.711-146.044"/>
				<path style="fill:#664500;" d="M56.889-146.044c-1.411,0-2.833,0.262-4.221,0.819c-5.837,2.332-8.67,8.954-6.337,14.791      c24.758,61.895,85.413,74.684,87.973,75.184c6.19,1.217,12.163-2.753,13.392-8.92c1.229-6.144-2.753-12.129-8.886-13.38      c-2.105-0.432-51.28-11.15-71.35-61.338C65.673-143.337,61.406-146.033,56.889-146.044"/>
				<path style="fill:#664500;" d="M204.8-214.311c-41.222,0-68.574,4.801-102.4,11.378c-7.726,1.49-22.756,0-22.756-22.756      c0-45.511,52.281-102.4,125.156-102.4c72.863,0,125.156,56.889,125.156,102.4c0,22.756-15.03,24.257-22.756,22.756      C273.374-209.51,246.022-214.311,204.8-214.311"/>
			</g>
			<path style="fill:#FFFFFF;" d="M102.4-225.689c0,0,34.133-11.378,102.4-11.378s102.4,11.378,102.4,11.378     S284.444-271.2,204.8-271.2S102.4-225.689,102.4-225.689"/>
			<g>
				<path style="fill:#5DADEC;" d="M123.415-285.183c-7.737-30.458-38.684-48.868-69.143-41.131      c-30.447,7.714-48.868,38.673-41.131,69.131c7.726,30.458,72.101,99.078,83.137,96.279      C107.292-163.703,131.14-254.725,123.415-285.183"/>
				<path style="fill:#5DADEC;" d="M285.924-285.183c7.737-30.458,38.684-48.868,69.143-41.131      c30.458,7.714,48.879,38.673,41.142,69.131c-7.725,30.458-72.112,99.078-83.137,96.279      C302.046-163.703,278.198-254.725,285.924-285.183"/>
			</g>
		</g>
	</g>
</g>
<g>
</g>
<g>
</g>
<g>
</g>
<g>
</g>
<g>
</g>
<g>
</g>
<g>
</g>
<g>
</g>
<g>
</g>
<g>
</g>
<g>
</g>
<g>
</g>
<g>
</g>
<g>
</g>
<g>
</g>
</svg>
