<?xml version="1.0" encoding="iso-8859-1"?>
<!-- Generator: Adobe Illustrator 19.0.0, SVG Export Plug-In . SVG Version: 6.00 Build 0)  -->
<svg xmlns="http://www.w3.org/2000/svg" xmlns:xlink="http://www.w3.org/1999/xlink" version="1.1" id="Capa_1" x="0px" y="0px" viewBox="0 0 512 512" style="enable-background:new 0 0 512 512;" xml:space="preserve">
<g transform="matrix(1.25 0 0 -1.25 0 45)">
	<g>
		<g>
			<path style="fill:#FFCC4D;" d="M409.6-168.8c0-113.106-91.694-204.8-204.8-204.8C91.705-373.6,0-281.906,0-168.8     C0-55.705,91.705,36,204.8,36C317.906,36,409.6-55.705,409.6-168.8"/>
			<g>
				<path style="fill:#664500;" d="M348.16-171.076c-1.297,0.967-21.97,16.225-52.861,26.67c0.307,1.308,0.523,2.651,0.523,4.05      c0,4.198-1.57,7.999-4.085,10.968c20.514,5.928,37.934,6.098,38.241,6.098c6.269,0.023,11.355,5.12,11.344,11.401      c-0.011,6.269-5.086,11.355-11.366,11.355c-2.503,0-62.02-0.421-99.066-37.467c-3.254-3.254-4.233-8.146-2.458-12.402      c1.752-4.244,5.905-7.02,10.502-7.02c52.224,0,95.164-31.551,95.596-31.869c2.048-1.513,4.426-2.253,6.793-2.253      c3.47,0,6.895,1.57,9.125,4.562C354.202-181.953,353.178-174.842,348.16-171.076"/>
				<path style="fill:#664500;" d="M178.711-138c-37.035,37.035-96.552,37.467-99.066,37.467c-6.281,0-11.366-5.086-11.366-11.366      c-0.011-6.269,5.074-11.378,11.355-11.389c0.296,0,17.727-0.182,38.229-6.098c-2.503-2.97-4.085-6.77-4.085-10.968      c0-1.399,0.216-2.742,0.535-4.05c-30.902-10.445-51.575-25.702-52.873-26.67c-5.029-3.766-6.042-10.9-2.276-15.929      c2.23-2.981,5.655-4.551,9.114-4.551c2.367,0,4.767,0.74,6.815,2.276c0.421,0.319,43.088,31.858,95.573,31.858      c4.597,0,8.75,2.776,10.513,7.02C182.943-146.147,181.965-141.254,178.711-138"/>
				<path style="fill:#664500;" d="M79.644-205.926c0-45.102,52.292-102.4,125.156-102.4s125.156,56.889,125.156,102.4      C329.956-205.926,212.389-237.283,79.644-205.926"/>
			</g>
			<path style="fill:#E75A70;" d="M136.533-225.723v-79.201c0-34.133,22.756-68.267,68.267-68.267s68.267,34.133,68.267,68.267     v78.734C201.489-240.89,136.533-225.723,136.533-225.723"/>
		</g>
	</g>
</g>
<g>
</g>
<g>
</g>
<g>
</g>
<g>
</g>
<g>
</g>
<g>
</g>
<g>
</g>
<g>
</g>
<g>
</g>
<g>
</g>
<g>
</g>
<g>
</g>
<g>
</g>
<g>
</g>
<g>
</g>
</svg>
