<?xml version="1.0" encoding="iso-8859-1"?>
<!-- Generator: Adobe Illustrator 19.0.0, SVG Export Plug-In . SVG Version: 6.00 Build 0)  -->
<svg xmlns="http://www.w3.org/2000/svg" xmlns:xlink="http://www.w3.org/1999/xlink" version="1.1" id="Capa_1" x="0px" y="0px" viewBox="0 0 512 512" style="enable-background:new 0 0 512 512;" xml:space="preserve">
<g transform="matrix(1.25 0 0 -1.25 0 45)">
	<g>
		<g>
			<path style="fill:#FFCC4D;" d="M409.6-168.8c0-113.106-91.694-204.8-204.8-204.8C91.705-373.6,0-281.906,0-168.8     C0-55.705,91.705,36,204.8,36C317.906,36,409.6-55.705,409.6-168.8"/>
			<g>
				<path style="fill:#664500;" d="M159.289-151.733c0-22.005-12.732-39.822-28.444-39.822S102.4-173.738,102.4-151.733      c0,21.993,12.732,39.822,28.444,39.822S159.289-129.74,159.289-151.733"/>
				<path style="fill:#664500;" d="M323.777-166.49c-0.671,1.536-17.055,37.513-50.711,37.513      c-33.644,0-50.028-35.977-50.711-37.513c-1.047-2.355-0.364-5.109,1.638-6.724c1.991-1.616,4.847-1.673,6.952-0.159      c0.137,0.102,14.359,10.263,42.121,10.263c27.603,0,41.802-10.024,42.121-10.251c1.001-0.751,2.207-1.126,3.391-1.126      c1.252,0,2.514,0.421,3.55,1.24C324.142-171.633,324.836-168.857,323.777-166.49"/>
				<path style="fill:#664500;" d="M68.255-105.744c-2.367,0-4.767,0.74-6.815,2.276c-5.029,3.766-6.042,10.9-2.276,15.929      c37.114,49.493,86.653,50.062,88.747,50.062c6.281,0,11.378-5.097,11.378-11.378c0-6.269-5.063-11.355-11.332-11.378      c-1.764-0.023-40.607-0.978-70.588-40.96C75.127-104.174,71.714-105.744,68.255-105.744"/>
				<path style="fill:#664500;" d="M329.956-129.934c-3.47,0-6.884,1.57-9.114,4.551c-29.491,39.322-79.201,29.889-79.69,29.81      c-6.224-1.229-12.151,2.765-13.392,8.92c-1.229,6.155,2.776,12.151,8.932,13.38c2.617,0.535,64.364,12.197,102.354-38.457      c3.777-5.029,2.753-12.163-2.276-15.929C334.723-129.194,332.334-129.934,329.956-129.934"/>
				<path style="fill:#664500;" d="M264.579-232.254c-2.128,1.252-4.915,0.99-6.793-0.683c-0.102-0.08-11.526-9.819-52.986-9.819      c-41.426,0-52.85,9.717-52.861,9.717c-1.82,1.82-4.608,2.162-6.838,0.933c-2.219-1.274-3.334-3.857-2.708-6.337      c0.125-0.501,13.028-49.823,62.407-49.823s62.282,49.323,62.407,49.823C267.81-236.02,266.706-233.54,264.579-232.254"/>
			</g>
		</g>
	</g>
</g>
<g>
</g>
<g>
</g>
<g>
</g>
<g>
</g>
<g>
</g>
<g>
</g>
<g>
</g>
<g>
</g>
<g>
</g>
<g>
</g>
<g>
</g>
<g>
</g>
<g>
</g>
<g>
</g>
<g>
</g>
</svg>
