<?xml version="1.0" encoding="utf-8"?>
<svg version="1.1" id="Layer_1" x="0px" y="0px" viewBox="0 0 15 15" style="enable-background:new 0 0 15 15;" xmlns="http://www.w3.org/2000/svg">
  <style type="text/css">
    .st0 {
        fill: #4993C5;
    }
    </style>
  <g>
    <rect width="15" height="15" style="fill: rgb(73, 147, 197);"/>
    <path class="st0" d="M7.5,14c-1.9,0-3.7,0-5.6,0C1.4,14,1,13.7,1,13.2c0-0.4,0-0.7,0-1.1c0-0.5,0.3-0.9,0.7-1.1&#10;        C2.9,10.4,4,9.8,5.2,9.1c0.2-0.1,0.4-0.2,0.7,0C7,9.6,8.2,9.5,9.3,8.9c0.1-0.1,0.2-0.1,0.3,0c1.2,0.7,2.4,1.3,3.7,2&#10;        c0.5,0.3,0.7,0.7,0.7,1.2c0,0.3,0,0.6,0,1c0,0.5-0.3,0.9-0.9,0.9C11.2,14,9.4,14,7.5,14z" style="fill: rgb(252, 252, 252);"/>
    <path class="st0" d="M7.4,8.6c-1,0-1.9-0.6-2.5-1.5c-1-1.5-0.9-3.6,0.3-5c1.3-1.5,3.5-1.5,4.8,0c1.4,1.6,1.3,4.1-0.2,5.5&#10;        C9.1,8.3,8.3,8.6,7.4,8.6z" style="fill: rgb(252, 252, 252);"/>
  </g>
</svg>