<?xml version="1.0" encoding="utf-8"?>
<svg version="1.1" id="Layer_1" x="0px" y="0px" viewBox="0 0 96 96" style="enable-background:new 0 0 96 96;" xmlns="http://www.w3.org/2000/svg">
  <style type="text/css">
	.st0{fill:#333333;}
</style>
  <g id="XMLID_2_" transform="matrix(1.694114, 0, 0, 1.691595, -33.535393, -33.161968)">
    <path id="XMLID_6_" class="st0" d="M74.6,53.7c0,0.1,0,0.2,0,0.3C73,60.4,69.8,65.6,65,69.5s-10.6,6-17.1,6c-3.5,0-6.9-0.7-10.1-2&#10;&#9;&#9;c-3.3-1.3-6.2-3.2-8.7-5.6l-4.6,4.6c-0.5,0.5-1,0.7-1.6,0.7s-1.2-0.2-1.6-0.7c-0.5-0.5-0.7-1-0.7-1.6v-16c0-0.6,0.2-1.2,0.7-1.6&#10;&#9;&#9;s1-0.7,1.6-0.7h16c0.6,0,1.2,0.2,1.6,0.7s0.7,1,0.7,1.6s-0.2,1.2-0.7,1.6l-4.9,4.9c1.7,1.6,3.6,2.8,5.8,3.7s4.4,1.3,6.7,1.3&#10;&#9;&#9;c3.2,0,6.2-0.8,9-2.3c2.8-1.6,5-3.7,6.7-6.4c0.3-0.4,0.9-1.8,1.9-4.2c0.2-0.5,0.5-0.8,1.1-0.8h6.9c0.3,0,0.6,0.1,0.8,0.3&#10;&#9;&#9;C74.5,53.2,74.6,53.4,74.6,53.7z M75.5,25.1v16c0,0.6-0.2,1.2-0.7,1.6c-0.5,0.5-1,0.7-1.6,0.7h-16c-0.6,0-1.2-0.2-1.6-0.7&#10;&#9;&#9;c-0.5-0.5-0.7-1-0.7-1.6s0.2-1.2,0.7-1.6l4.9-4.9c-3.5-3.3-7.7-4.9-12.5-4.9c-3.2,0-6.2,0.8-9,2.3s-5,3.7-6.7,6.4&#10;&#9;&#9;c-0.3,0.4-0.9,1.8-1.9,4.2c-0.2,0.5-0.5,0.8-1.1,0.8h-7.1c-0.3,0-0.6-0.1-0.8-0.3c-0.2-0.2-0.3-0.5-0.3-0.8V42&#10;&#9;&#9;c1.6-6.4,4.8-11.6,9.7-15.6s10.6-6,17.2-6c3.5,0,6.9,0.7,10.2,2c3.3,1.3,6.2,3.2,8.8,5.6l4.7-4.6c0.5-0.5,1-0.7,1.6-0.7&#10;&#9;&#9;c0.6,0,1.2,0.2,1.6,0.7C75.3,23.9,75.5,24.5,75.5,25.1z"/>
  </g>
</svg>