<?xml version="1.0" encoding="utf-8"?>
<svg width="100px" height="100px" viewBox="0 0 100 100" version="1.1" xmlns="http://www.w3.org/2000/svg">
  <title>Emoji-Cry</title>
  <g id="Cry" stroke="none" stroke-width="1" fill="none" fill-rule="evenodd" transform="matrix(1.111111, 0, 0, 1.111111, -5.555555, -5.555555)">
    <circle id="Oval-2" fill="#F6C338" cx="50" cy="50" r="45"/>
    <circle id="Oval-2" fill="#F6D659" cx="50" cy="48" r="41"/>
    <rect id="Rectangle" fill="#7B4101" x="40.1666667" y="59.9350649" width="17.5" height="23.3766234" rx="8.75"/>
    <path d="M48.7085554,62.6343116 C48.7515281,62.6320724 48.7954145,62.630939 48.840228,62.630939 C48.8905851,62.630939 48.9406375,62.6320469 48.9903853,62.6342628 C49.0401332,62.6320469 49.0901856,62.630939 49.1405427,62.630939 C49.1853562,62.630939 49.2292426,62.6320724 49.2722153,62.6343116 C49.3223227,62.6320632 49.3727391,62.630939 49.4234647,62.630939 C52.7526769,62.630939 56.0166819,65.807447 55.9902256,68.5348466 C55.978553,69.7381788 53.8452023,70.102679 51.7840846,70.2225601 C50.8464592,70.2770953 47.1343115,70.2770953 46.1966861,70.2225601 C44.1355684,70.102679 42.0022177,69.7381788 41.9905451,68.5348466 C41.9640888,65.807447 45.2280938,62.630939 48.557306,62.630939 C48.6080316,62.630939 48.658448,62.6320632 48.7085554,62.6343116 Z" id="Combined-Shape" fill="#FFFFFF"/>
    <path d="M34.1666667,48.2228508 C29.7334474,48.256064 27.0265707,49.4575814 25.8381309,50.157148 C24.7802508,50.7798615 22.5,50.8649109 22.5,49.4293593 C22.5,46.5058592 26.834009,44.0825559 32.5003608,43.6426857 C32.9636448,43.5962755 33.4558406,43.5714286 33.9784781,43.5714286 C34.041323,43.5714286 34.1040537,43.5716702 34.1666667,43.5721517 C34.2292796,43.5716702 34.2920103,43.5714286 34.3548553,43.5714286 C34.8774927,43.5714286 35.3696885,43.5962755 35.8329725,43.6426857 C41.4993244,44.0825559 45.8333333,46.5058592 45.8333333,49.4293593 C45.8333333,50.8649109 43.5530826,50.7798615 42.4952024,50.157148 C41.3067626,49.4575814 38.5998859,48.256064 34.1666667,48.2228508 Z" id="Combined-Shape" fill="#7B4101"/>
    <path d="M17.9850847,42.6431875 C17.1249245,43.1621155 15.2708573,43.2329899 15.2708573,42.0366969 C15.2708573,39.6004468 18.7948311,37.5810274 23.4021302,37.214469 C23.7788255,37.1757938 24.1790289,37.155088 24.6039844,37.155088 C24.6550835,37.155088 24.7060897,37.1552893 24.7570001,37.1556906 C24.8079106,37.1552893 24.8589168,37.155088 24.9100159,37.155088 C25.3349713,37.155088 25.7351748,37.1757938 26.11187,37.214469 C30.7191691,37.5810274 34.0955504,40.2572137 34.3635185,41.6198784 C34.5345449,42.4895778 32.552513,42.4424106 31.6680707,42.0778906 C30.3959294,41.5535817 28.3616416,41.0589508 24.7570001,41.0312732 C21.1523586,41.0589508 18.9514027,42.0602153 17.9850847,42.6431875 Z" id="Combined-Shape" fill="#7B4101" transform="translate(24.822389, 40.077166) rotate(-38.000000) translate(-24.822389, -40.077166) "/>
    <path d="M65.6666667,48.2228508 C61.2334474,48.256064 58.5265707,49.4575814 57.3381309,50.157148 C56.2802508,50.7798615 54,50.8649109 54,49.4293593 C54,46.5058592 58.334009,44.0825559 64.0003608,43.6426857 C64.4636448,43.5962755 64.9558406,43.5714286 65.4784781,43.5714286 C65.541323,43.5714286 65.6040537,43.5716702 65.6666667,43.5721517 C65.7292796,43.5716702 65.7920103,43.5714286 65.8548553,43.5714286 C66.3774927,43.5714286 66.8696885,43.5962755 67.3329725,43.6426857 C72.9993244,44.0825559 77.3333333,46.5058592 77.3333333,49.4293593 C77.3333333,50.8649109 75.0530826,50.7798615 73.9952024,50.157148 C72.8067626,49.4575814 70.0998859,48.256064 65.6666667,48.2228508 Z" id="Combined-Shape" fill="#7B4101" transform="translate(65.666667, 47.077922) scale(-1, 1) translate(-65.666667, -47.077922) "/>
    <path d="M68.1736399,42.6431875 C67.3134797,43.1621155 65.4594125,43.2329899 65.4594125,42.0366969 C65.4594125,39.6004468 68.9833863,37.5810274 73.5906854,37.214469 C73.9673807,37.1757938 74.3675841,37.155088 74.7925395,37.155088 C74.8436386,37.155088 74.8946449,37.1552893 74.9455553,37.1556906 C74.9964657,37.1552893 75.047472,37.155088 75.0985711,37.155088 C75.5235265,37.155088 75.9237299,37.1757938 76.3004252,37.214469 C80.9077243,37.5810274 84.2841056,40.2572137 84.5520736,41.6198784 C84.7231001,42.4895778 82.7410682,42.4424106 81.8566259,42.0778906 C80.5844846,41.5535817 78.5501968,41.0589508 74.9455553,41.0312732 C71.3409138,41.0589508 69.1399579,42.0602153 68.1736399,42.6431875 Z" id="Combined-Shape" fill="#7B4101" transform="translate(75.010944, 40.077166) scale(-1, 1) rotate(-38.000000) translate(-75.010944, -40.077166) "/>
    <path d="M25.8381309,50.1810504 C27.0265707,49.4814838 29.7334474,48.2799665 34.1666667,48.2467532 C34.8748092,48.2520586 35.5389033,48.2871737 36.1597964,48.3452911 L36.1597964,92.7325977 C31.6156209,91.1217052 27.4070297,89.2775203 23.6666667,86.3883868 L23.6666667,50.574793 C24.3892913,50.6869362 25.2823861,50.5081856 25.8381309,50.1810504 Z" id="Combined-Shape" fill="#5DADEC"/>
    <path d="M65.8450011,50.1810504 C67.0334409,49.4814838 69.7403176,48.2799665 74.1735369,48.2467532 C74.8816794,48.2520586 75.5457735,48.2871737 76.1666667,48.3452911 L76.1666667,92.7325977 C71.6224911,91.1217052 67.4139,89.2775203 63.6735369,86.3883868 L63.6735369,50.574793 C64.3961615,50.6869362 65.2892564,50.5081856 65.8450011,50.1810504 Z" id="Combined-Shape" fill="#5DADEC" transform="translate(69.920102, 70.489675) scale(-1, 1) translate(-69.920102, -70.489675) "/>
  </g>
</svg>