<?xml version="1.0" encoding="UTF-8"?>
<svg width="100px" height="100px" viewBox="0 0 100 100" version="1.1" xmlns="http://www.w3.org/2000/svg" xmlns:xlink="http://www.w3.org/1999/xlink">
    <title>Emoji-Dog</title>
    <g id="Dog" stroke="none" stroke-width="1" fill="none" fill-rule="evenodd">
        <path d="M49.8851157,83.8074136 C49.6996884,83.6865198 48.1038899,82.6802063 44.5167486,81.4951063 C41.2154957,80.4053591 34.805228,79.8894319 34.805228,79.8894319 L49.9035052,74.0524734 L64.989693,79.8894319 C64.989693,79.8894319 58.5845336,80.4053591 55.286005,81.4951063 C51.4630356,82.7585319 49.9035052,83.8193327 49.9035052,83.8193327 L49.8851157,83.8074136 Z" id="Path" fill="#9F9080"></path>
        <path d="M49.8975457,74.7965664 L43.5444898,74.8272156 C43.5444898,74.8272156 43.552152,79.1640689 43.552152,82.474176 C43.552152,85.7859859 44.9294903,88.1800242 47.638704,88.5035429 C48.8452585,88.6465723 49.9035052,88.6210313 49.9035052,88.6210313 L50.0553887,88.6210313 C50.0553887,88.6210313 51.1151679,88.6465723 52.3235954,88.5035429 C55.0365551,88.1800242 56.4159366,85.7859859 56.4159366,82.474176 C56.4159366,79.1640689 56.4235989,74.8272156 56.4235989,74.8272156 L50.0615186,74.7965664" id="Path" fill="#E27587"></path>
        <path d="M13.5263815,57.5673227 C12.3540519,57.6051233 11.0025951,57.5574468 9.78258904,57.1445348 C6.79719253,56.1341348 5.52763704,52.9599056 5.37915899,50.1168573 C5.10297618,44.828859 7.76706754,39.6588599 10.1616167,35.1973667 C15.9973833,24.3250951 25.1309973,12.0480713 38.6489707,14.1700134 C31.2899419,17.2904364 26.1211348,23.5527368 24.1563546,31.090382 C22.9017831,35.9034889 23.8874935,40.6542758 23.3964262,41.6260239 C22.9131914,42.5826176 18.5392186,45.554222 16.7258112,48.3283097 C14.8536595,51.1926421 13.8139726,54.3588685 13.5263815,57.5673227 Z" id="Path" fill="#AA670B"></path>
        <path d="M49.9270029,74.7921991 C49.9270029,74.7921991 50.2193616,78.13556 50.4482085,80.0620961 C50.6770554,81.9972713 50.9881442,83.5177662 50.9881442,83.5177662 L48.8660318,83.5177662 C48.8660318,83.5177662 49.1544743,81.4702816 49.3577802,79.9757043 C49.5612565,78.481127 49.9270029,74.7921991 49.9270029,74.7921991 Z" id="Path" fill="#A7505F" transform="translate(49.927088, 79.154983) rotate(-180.000000) translate(-49.927088, -79.154983) "></path>
        <path d="M69.5181544,57.5673227 C68.3458248,57.6051233 66.994368,57.5574468 65.7743619,57.1445348 C62.7889654,56.1341348 61.5194099,52.9599056 61.3709319,50.1168573 C61.0947491,44.828859 63.7588404,39.6588599 66.1533896,35.1973667 C71.9891561,24.3250951 81.1227701,12.0480713 94.6407436,14.1700134 C87.2817148,17.2904364 82.1129076,23.5527368 80.1481275,31.090382 C78.893556,35.9034889 79.8792664,40.6542758 79.3881991,41.6260239 C78.9049643,42.5826176 74.5309915,45.554222 72.717584,48.3283097 C70.8454324,51.1926421 69.8057455,54.3588685 69.5181544,57.5673227 Z" id="Path" fill="#AA670B" transform="translate(77.995936, 35.753281) scale(-1, 1) translate(-77.995936, -35.753281) "></path>
        <path d="M49.9040098,11.3799201 C36.6306699,11.2217364 27.0114401,19.4813391 24.1567989,30.4334688 C22.9023317,35.2465756 23.8880728,39.9973626 23.3970562,40.9691106 C22.9136317,41.9257043 18.5396815,44.8973087 16.7263982,47.6713965 C11.7316589,55.3129081 12.6619597,65.1046273 17.9918121,72.1113612 C23.605928,79.4909931 33.3344492,81.1869121 42.9764553,79.0074177 C47.7040575,77.9381033 49.9093067,75.5968495 49.9093067,75.5968495 C49.9093067,75.5968495 53.3506607,78.2207565 56.8317409,79.0074177 C66.4737471,81.1869121 76.2022682,79.4909931 81.8163841,72.1113612 C87.1455303,65.1046273 88.0760077,55.3129081 83.0817981,47.6713965 C81.2685148,44.8973087 76.8945646,41.9257043 76.4111401,40.9691106 C75.9201234,39.9973626 76.9058645,35.2465756 75.6513973,30.4334688 C72.7967561,19.4813391 63.1775264,11.2217364 49.9040098,11.3799201 Z" id="Path" fill="#D7D6D3"></path>
        <path d="M49.9035178,15.7479763 C37.17702,15.6056591 27.9540885,23.0367906 25.2170543,32.8903778 C24.0142694,37.2207108 24.9593993,41.4949749 24.4886119,42.3692527 C24.0251037,43.2298962 19.8313539,45.9034368 18.0927752,48.3992724 C13.3038119,55.2743099 14.1957857,64.0838805 19.306056,70.387811 C24.6888785,77.0272362 34.0165988,78.5530478 43.2613684,76.5921654 C47.7942003,75.6301075 49.9085964,73.5236909 49.9085964,73.5236909 C49.9085964,73.5236909 53.2081717,75.8844094 56.5458365,76.5921654 C65.7906061,78.5530478 75.1183264,77.0272362 80.5011489,70.387811 C85.610742,64.0838805 86.5028851,55.2743099 81.7144297,48.3992724 C79.975851,45.9034368 75.7821012,43.2298962 75.318593,42.3692527 C74.8478055,41.4949749 75.7929355,37.2207108 74.5901505,32.8903778 C71.8531164,23.0367906 62.6301849,15.6056591 49.9035178,15.7479763 Z" id="Path" fill="#F0EFED"></path>
        <path d="M49.8823914,65.1591146 C53.3442117,65.1914665 56.2626909,66.5638669 56.2626909,68.2495696 C56.2626909,69.5828072 55.6350647,70.555066 54.9444374,71.5409467 C54.0768964,72.7805341 52.2495266,74.8970275 49.93143,74.8340265 C47.6133334,74.8970275 45.8169532,72.7805341 44.9494123,71.5409467 C44.258785,70.555066 43.6311587,69.5828072 43.6311587,68.2495696 C43.6311587,66.5638669 46.4204007,65.1914665 49.8823914,65.1591146 C49.9038458,65.1591146 49.8823914,65.1591146 49.8823914,65.1591146 Z" id="Path" fill="#161615"></path>
        <path d="M60.1011552,64.9650034 C56.8257838,63.6603717 55.3132487,61.5774221 54.2740726,60.1547912 C52.977614,58.3796951 51.9648301,55.978335 51.637906,53.801565 C51.4305135,52.4218429 51.3961183,50.9823549 51.6156002,49.6022923 C52.4749681,44.2000408 54.0857506,37.200288 60.0008644,35.3887536 C61.2993663,34.9911661 62.6935616,34.7919467 64.016072,35.1971965 C67.2829298,36.1984017 68.2868594,38.6590168 70.073534,41.2670884 C70.9059987,42.4823268 72.7752557,44.0496897 73.7199303,45.1564642 C75.8313155,47.6303607 77.2236378,51.3784099 76.8926271,54.6442461 C76.3041636,60.4502148 72.6014069,65.3736586 67.1848525,66.0530479 C64.9283947,66.3374038 62.1778047,65.7925302 60.1011552,64.9650034 Z" id="Path" fill="#A66309"></path>
        <ellipse id="Oval" stroke="#000000" stroke-width="2.00074145" fill="#EBEBEB" cx="35.6219791" cy="54.515259" rx="4.16563259" ry="7.68476703"></ellipse>
        <ellipse id="Oval" fill="#2A2A2A" cx="35.6218259" cy="54.5152761" rx="4.16563259" ry="7.68476703"></ellipse>
        <ellipse id="Oval" fill="#EBEBEB" cx="35.6430133" cy="49.4834277" rx="1.62793293" ry="1.48860426"></ellipse>
        <ellipse id="Oval" fill="#EBEBEB" cx="49.9036755" cy="66.8463426" rx="3.56006788" ry="1"></ellipse>
        <ellipse id="Oval" fill="#2A2A2A" cx="64.2038517" cy="54.5152761" rx="4.16563259" ry="7.68476703"></ellipse>
        <ellipse id="Oval" fill="#EBEBEB" cx="64.2250391" cy="49.4834277" rx="1.62793293" ry="1.48860426"></ellipse>
    </g>
</svg>