<?xml version="1.0" encoding="UTF-8"?>
<svg width="100px" height="100px" viewBox="0 0 100 100" version="1.1" xmlns="http://www.w3.org/2000/svg" xmlns:xlink="http://www.w3.org/1999/xlink">
    <title>Emoji-Love</title>
    <g id="Love" stroke="none" stroke-width="1" fill="none" fill-rule="evenodd">
        <path d="M50,5.02297575 L50,5 C74.9870249,5.76650911 95,25.6151845 95,49.9885121 C95,74.3618398 74.9870249,94.2105151 50,94.9770243 L50,95 C25.0129751,94.2334909 5,74.3848155 5,50.0114879 C5,25.6381602 25.0129751,5.78948486 50,5.02297575 Z" id="Combined-Shape" fill="#FFCA39"></path>
        <circle id="Oval" fill="#FFDE5C" cx="50" cy="48" r="41"></circle>
        <path d="M75.7171473,54.8555273 C76.9190788,54.0416789 78.2636067,53.064496 79.7161019,51.9249366 C83.8735558,48.6631938 88.0511004,44.7619635 91.9731549,40.2303143 C94.1123661,37.761229 95.3571429,34.8161488 95.3571429,31.8361363 C95.3571429,25.3004932 90.5827114,20 84.6898991,20 C81.7089253,20 78.9282943,21.3644441 76.9228879,23.7298888 L75,25.8695817 L73.8899311,24.6349693 L73.0775217,23.7303719 C71.0701024,21.364352 68.2892682,20 65.3084039,20 C59.4159824,20 54.6428571,25.3000584 54.6428571,31.8361363 C54.6428571,34.8638364 55.9461773,38.0627071 58.0320148,40.5013265 C61.9490575,45.0798645 66.114059,48.9367999 70.2537179,52.0910809 C71.6991193,53.1924282 73.0361212,54.126181 74.2303824,54.894917 C74.5076885,55.0734167 74.7526012,55.227438 74.9630538,55.3571429 C75.1789451,55.2164697 75.4310534,55.0492464 75.7171473,54.8555273 Z" id="Path" fill="#E30613" transform="translate(75.000000, 37.678571) scale(-1, 1) rotate(-15.000000) translate(-75.000000, -37.678571) "></path>
        <path d="M25.3600044,54.8555273 C26.561936,54.0416789 27.9064639,53.064496 29.3589591,51.9249366 C33.516413,48.6631938 37.6939576,44.7619635 41.616012,40.2303143 C43.7552232,37.761229 45,34.8161488 45,31.8361363 C45,25.3004932 40.2255686,20 34.3327562,20 C31.3517825,20 28.5711514,21.3644441 26.5657451,23.7298888 L24.6428571,25.8695817 L23.5327883,24.6349693 L22.7203789,23.7303719 C20.7129596,21.364352 17.9321254,20 14.9512611,20 C9.05883952,20 4.28571429,25.3000584 4.28571429,31.8361363 C4.28571429,34.8638364 5.58903448,38.0627071 7.67487196,40.5013265 C11.5919146,45.0798645 15.7569161,48.9367999 19.896575,52.0910809 C21.3419765,53.1924282 22.6789783,54.126181 23.8732396,54.894917 C24.1505457,55.0734167 24.3954583,55.227438 24.605911,55.3571429 C24.8218022,55.2164697 25.0739105,55.0492464 25.3600044,54.8555273 Z" id="Path" fill="#E30613" transform="translate(24.642857, 37.678571) rotate(-15.000000) translate(-24.642857, -37.678571) "></path>
        <path d="M49.4031642,64.2419488 C69.9926611,64.2419488 72.8063283,59.2817768 72.8063283,61.6322087 C72.8063283,69.3477548 62.3283748,78.4673939 49.4031642,78.4673939 C36.4779535,78.4673939 26,69.2290834 26,61.6322087 C26,59.2817768 28.8136672,64.2419488 49.4031642,64.2419488 Z" id="Combined-Shape" fill="#7F4401"></path>
        <path d="M64.9241451,73.4482788 C60.858401,76.1091815 55.6167154,77.8959654 49.895546,77.8959654 C43.7588782,77.8959654 38.173868,75.8134773 34,72.8129052 C37.720774,70.4689856 43.0602643,69 48.9923818,69 C55.4438742,69 61.1944239,70.7374744 64.9241451,73.4482788 Z" id="Combined-Shape" fill="#E30613"></path>
    </g>
</svg>