<?xml version="1.0" encoding="UTF-8"?>
<svg width="100px" height="100px" viewBox="0 0 100 100" version="1.1" xmlns="http://www.w3.org/2000/svg" xmlns:xlink="http://www.w3.org/1999/xlink">
    <title>Emoji-Smile</title>
    <g id="Smile" stroke="none" stroke-width="1" fill="none" fill-rule="evenodd">
        <circle id="Oval-2" fill="#F6C338" cx="49.96" cy="49" r="45"></circle>
        <circle id="Oval-2" fill="#F6D659" cx="50" cy="47" r="41"></circle>
        <path d="M37.0171327,44.0816563 C34.2404937,44.1510674 32.5451074,46.6620731 31.800757,48.1240709 C31.1381796,49.4254565 29.71,49.603198 29.71,46.6030928 C29.71,40.4933804 32.424501,35.4290105 35.9734826,34.5097424 C36.2636492,34.4127514 36.5719241,34.3608247 36.8992653,34.3608247 C36.9386267,34.3608247 36.9779166,34.3613297 37.0171327,34.362336 C37.0563487,34.3613297 37.0956386,34.3608247 37.135,34.3608247 C37.4623412,34.3608247 37.7706161,34.4127514 38.0607828,34.5097424 C41.6097643,35.4290105 44.3242653,40.4933804 44.3242653,46.6030928 C44.3242653,49.603198 42.8960858,49.4254565 42.2335083,48.1240709 C41.4891579,46.6620731 39.7937716,44.1510674 37.0171327,44.0816563 Z" id="Combined-Shape" fill="#7B4101"></path>
        <path d="M63.7471327,44.0816563 C60.9704937,44.1510674 59.2751074,46.6620731 58.530757,48.1240709 C57.8681796,49.4254565 56.44,49.603198 56.44,46.6030928 C56.44,40.4933804 59.154501,35.4290105 62.7034826,34.5097424 C62.9936492,34.4127514 63.3019241,34.3608247 63.6292653,34.3608247 C63.6686267,34.3608247 63.7079166,34.3613297 63.7471327,34.362336 C63.7863487,34.3613297 63.8256386,34.3608247 63.865,34.3608247 C64.1923412,34.3608247 64.5006161,34.4127514 64.7907828,34.5097424 C68.3397643,35.4290105 71.0542653,40.4933804 71.0542653,46.6030928 C71.0542653,49.603198 69.6260858,49.4254565 68.9635083,48.1240709 C68.2191579,46.6620731 66.5237716,44.1510674 63.7471327,44.0816563 Z" id="Combined-Shape-Copy" fill="#7B4101"></path>
        <path d="M70.2029309,61.4564177 C71.0828613,60.4956357 71.6624532,60.9280929 71.941913,61.3540842 C72.1255769,61.6340502 72.1378185,62.0944316 71.9786379,62.7352286 C71.0711277,66.0457921 64.0393731,74.6056121 49.9846503,74.5971962 C35.9299275,74.5887803 29.0149185,66.0332006 28.1108599,62.7352286 C27.9516793,62.0944316 27.9639209,61.6340502 28.1475848,61.3540842 C28.4270447,60.9280929 29.0721898,60.5698569 29.8865669,61.4564177 C31.6376455,63.8402671 39.6425785,68.2274609 50.0447489,68.2180367 C60.4469193,68.2086124 68.4641062,63.8235852 70.2029309,61.4564177 Z" id="Combined-Shape" fill="#7B4101"></path>
        <ellipse id="Oval-8" fill="#F28F85" cx="20.1688596" cy="54.775" rx="9.04605263" ry="9.075"></ellipse>
        <ellipse id="Oval-8-Copy" fill="#F28F85" cx="79.5723684" cy="54.775" rx="9.04605263" ry="9.075"></ellipse>
    </g>
</svg>