<?xml version="1.0" encoding="UTF-8"?>
<svg width="100px" height="100px" viewBox="0 0 100 100" version="1.1" xmlns="http://www.w3.org/2000/svg" xmlns:xlink="http://www.w3.org/1999/xlink">
    <title>Emoji-Face With Tears of Joy</title>
    <g id="Face-With-Tears-of-Joy-(1F602)" stroke="none" stroke-width="1" fill="none" fill-rule="evenodd">
        <path d="M50,5.02297575 L50,5 C74.9870249,5.76650911 95,25.6151845 95,49.9885121 C95,74.3618398 74.9870249,94.2105151 50,94.9770243 L50,95 C25.0129751,94.2334909 5,74.3848155 5,50.0114879 C5,25.6381602 25.0129751,5.78948486 50,5.02297575 Z" id="Combined-Shape" fill="#FFCA39"></path>
        <circle id="Oval" fill="#FFDE5C" cx="50" cy="48" r="41"></circle>
        <path d="M49.7380952,59.3173777 C75.3981723,59.3173777 78.9047619,51.6189478 78.9047619,55.2669331 C78.9047619,69.6975991 65.8464004,81.3959654 49.7380952,81.3959654 C33.62979,81.3959654 20.5714286,69.6975991 20.5714286,55.2669331 C20.5714286,51.6189478 24.0780182,59.3173777 49.7380952,59.3173777 Z" id="Combined-Shape" fill="#7F4401"></path>
        <path d="M31.8511905,48.0896369 C38.7344979,48.0896369 42.0595238,50.9943146 42.0595238,48.5892036 C42.0595238,46.1840926 37.4890973,42.5 31.8511905,42.5 C26.2132837,42.5 21.6428571,46.1840926 21.6428571,48.5892036 C21.6428571,50.9943146 24.967883,48.0896369 31.8511905,48.0896369 Z" id="Oval-3" fill="#7F4401"></path>
        <path d="M66.8511905,48.0896369 C73.7344979,48.0896369 77.0595238,50.9943146 77.0595238,48.5892036 C77.0595238,46.1840926 72.4890973,42.5 66.8511905,42.5 C61.2132837,42.5 56.6428571,46.1840926 56.6428571,48.5892036 C56.6428571,50.9943146 59.967883,48.0896369 66.8511905,48.0896369 Z" id="Oval-3" fill="#7F4401" transform="translate(66.851190, 46.021201) scale(-1, 1) translate(-66.851190, -46.021201) "></path>
        <path d="M24.280792,39.6479334 C27.1223862,39.6479334 29.8836841,40.1314333 31.8229465,40.637951 C33.6975447,41.1275791 34.7980972,41.6618906 34.7980972,40.4797244 C34.7980972,38.0746134 30.2677745,36.1248857 24.6793383,36.1248857 C19.090902,36.1248857 14.5605794,38.0746134 14.5605794,40.4797244 C14.5605794,42.8848354 18.6923558,39.6479334 24.280792,39.6479334 Z" id="Oval-3" fill="#7F4401" transform="translate(24.679338, 38.746807) rotate(-30.000000) translate(-24.679338, -38.746807) "></path>
        <path d="M74.1205282,39.6479334 C76.9621224,39.6479334 79.7234203,40.1314333 81.6626827,40.637951 C83.5372809,41.1275791 84.6378333,41.6618906 84.6378333,40.4797244 C84.6378333,38.0746134 80.1075107,36.1248857 74.5190744,36.1248857 C68.9306382,36.1248857 64.4003155,38.0746134 64.4003155,40.4797244 C64.4003155,42.8848354 68.532092,39.6479334 74.1205282,39.6479334 Z" id="Oval-3" fill="#7F4401" transform="translate(74.519074, 38.746807) scale(-1, 1) rotate(-30.000000) translate(-74.519074, -38.746807) "></path>
        <path d="M49.7380952,61.2781206 C75.3981723,61.2781206 78.9047619,53.8583249 78.9047619,57.3742764 C78.9047619,60.2951377 78.9047619,62.8814228 77.4267344,63.4288885 C71.7181873,65.5433507 62.4635357,67.7739436 49.7380952,67.7739436 C37.0126548,67.7739436 27.7580032,65.5433507 22.049456,63.4288885 C20.5714286,62.8814228 20.5714286,60.2951377 20.5714286,57.3742764 C20.5714286,53.8583249 24.0780182,61.2781206 49.7380952,61.2781206 Z" id="Combined-Shape" fill="#FFFFFF"></path>
        <path d="M10.6790532,81.3128591 C15.8503835,81.3128591 19.4389204,76.6932236 21.9693797,72.164929 C23.2865183,69.8078899 27.0601186,61.5572386 28.5015791,57.1413237 C28.7665768,56.329503 28.6946062,55.7711708 28.2658004,55.3771246 C27.8369946,54.9830784 27.0597952,54.9870755 26.1226786,55.1541838 C22.1352324,55.865232 14.0626964,59.3945393 10.7662822,61.027677 C6.16758066,63.3060048 1.31553135,66.8449879 1.31553135,71.9924872 C1.31553135,77.1399865 5.50772286,81.3128591 10.6790532,81.3128591 Z" id="Oval-4" fill="#0FA9F7" transform="translate(14.986111, 68.179920) rotate(-18.000000) translate(-14.986111, -68.179920) "></path>
        <path d="M79.6421359,81.2796941 C84.8134662,81.2796941 88.4020032,76.6600585 90.9324625,72.131764 C92.2496011,69.7747249 96.0232014,61.5240736 97.4646618,57.1081587 C97.7296595,56.296338 97.657689,55.7380057 97.2288832,55.3439596 C96.8000773,54.9499134 96.022878,54.9539105 95.0857614,55.1210187 C91.0983152,55.8320669 83.0257792,59.3613743 79.7293649,60.9945119 C75.1306634,63.2728398 70.2786141,66.8118228 70.2786141,71.9593221 C70.2786141,77.1068214 74.4708056,81.2796941 79.6421359,81.2796941 Z" id="Oval-4" fill="#0FA9F7" transform="translate(83.949194, 68.146755) scale(-1, 1) rotate(-18.000000) translate(-83.949194, -68.146755) "></path>
    </g>
</svg>