<?xml version="1.0" encoding="utf-8"?>
<svg width="100px" height="100px" viewBox="0 0 100 100" version="1.1" xmlns="http://www.w3.org/2000/svg">
  <title>Emoji-Wink</title>
  <g id="Wink" stroke="none" stroke-width="1" fill="none" fill-rule="evenodd" transform="matrix(1.111111, 0, 0, 1.083385, -5.555555, -3.250155)">
    <path d="M50,3.02297575 L50,3 C74.9870249,3.76650911 95,23.6151845 95,47.9885121 C95,72.3618398 74.9870249,92.2105151 50,92.9770243 L50,93 C25.0129751,92.2334909 5,72.3848155 5,48.0114879 C5,23.6381602 25.0129751,3.78948486 50,3.02297575 Z" id="Combined-Shape" fill="#FFCA39"/>
    <circle id="Oval" fill="#FFDE5C" cx="50" cy="46" r="41"/>
    <path d="M32.7069783,47.5718661 C39.6798247,47.5718661 43.048103,50.503564 43.048103,48.0760799 C43.048103,45.6485958 38.4182238,41.9302326 32.7069783,41.9302326 C26.9957329,41.9302326 22.3658537,45.6485958 22.3658537,48.0760799 C22.3658537,50.503564 25.7341319,47.5718661 32.7069783,47.5718661 Z" id="Oval-3" fill="#7F4401"/>
    <path d="M51.1280488,65.7488507 C74.5225288,65.7488507 77.7195122,60.7425376 77.7195122,63.1148339 C77.7195122,70.9021526 65.8141085,80.1066255 51.1280488,80.1066255 C36.4419891,80.1066255 24.5365854,70.7823772 24.5365854,63.1148339 C24.5365854,60.7425376 27.7335688,65.7488507 51.1280488,65.7488507 Z" id="Combined-Shape" fill="#7F4401"/>
    <ellipse id="Oval-7" fill="#FFFFFF" cx="69.5792683" cy="42.4709302" rx="14.652439" ry="14.5988372"/>
    <ellipse id="Oval-7" fill="#674F20" cx="70.1219512" cy="43.0116279" rx="6.51219512" ry="6.48837209"/>
    <path d="M50.6628626,95.2981743 C50.4954627,95.3015669 50.3256713,95.3032829 50.1534535,95.3032829 C49.7640518,95.3032829 49.3911012,95.2703165 49.03432,95.2067207 C40.0363091,94.354107 39.0545058,88.0608331 38.7916785,84.5681585 C38.5093527,80.8163718 38.7112274,79.1211863 38.7916785,71.9321177 C38.8332115,68.2207485 42.1618963,69.028611 50.6628626,69.0612736 C59.1638289,69.028611 62.4925137,68.2207485 62.5340467,71.9321177 C62.6144978,79.1211863 62.8163726,80.8163718 62.5340467,84.5681585 C62.2712194,88.0608331 61.2894161,94.354107 52.2914052,95.2067207 C51.934624,95.2703165 51.5616734,95.3032829 51.1722717,95.3032829 C51.0000539,95.3032829 50.8302625,95.3015669 50.6628626,95.2981743 Z" id="Combined-Shape" fill="#F46C60"/>
    <path d="M43.6507798,72.7874954 C45.49935,74.3662282 47.1215304,75.6750384 48.5173209,76.7139263 C49.9131115,77.7528141 52.8007496,79.63091 57.1802354,82.3482139 C53.2100865,78.5402906 50.5902669,76.0783306 49.3207765,74.9623338 C48.0512861,73.8463371 46.5569685,72.6345528 44.8378236,71.3269808 L43.6507798,72.7874954 Z" id="Path-7" fill="#E55567" transform="translate(50.415508, 76.837597) scale(-1, 1) rotate(51.000000) translate(-50.415508, -76.837597) "/>
  </g>
</svg>