<?xml version="1.0" encoding="utf-8"?>
<svg version="1.1" id="Layer_1" xmlns="http://www.w3.org/2000/svg" xmlns:xlink="http://www.w3.org/1999/xlink" x="0px" y="0px" viewBox="0 0 186.2 146.4" style="enable-background:new 0 0 186.2 146.4;" xml:space="preserve">
    <title>Board Icon</title>
    <style type="text/css">
    .st0 {
        fill: #4993C5;
    }
    </style>
    <g>
        <path class="st0" d="M73.2,106.4c-6.3,0-12.5-0.6-18.3-1.7c-8.6,6.1-18.4,10.6-28.9,13.3c-2.8,0.7-5.8,1.2-8.9,1.7
        c-0.1,0-0.2,0-0.3,0c-1.6,0-3-1.2-3.3-3c-0.4-2,0.9-3.2,2.1-4.6c4.1-4.6,8.6-8.6,12.2-17.3C10.8,85.1,0,70,0,53.2
        C0,23.8,32.7,0,73.2,0c40.4,0,73.2,23.8,73.2,53.2S113.6,106.4,73.2,106.4z M158.6,121.5c3.5,8.6,8.1,12.7,12.2,17.3
        c1.1,1.4,2.5,2.6,2.1,4.6c-0.4,1.9-2,3.2-3.6,3c-3.1-0.4-6.1-0.9-8.9-1.7c-10.5-2.7-20.3-7.2-28.9-13.3c-5.8,1-12,1.7-18.3,1.7
        c-18.8,0-36.1-5.2-49.1-13.7c3,0.2,6.1,0.4,9.1,0.4c22.3,0,43.4-6.4,59.6-18.1c17.4-12.7,26.9-29.8,26.9-48.4
        c0-5.4-0.8-10.7-2.4-15.8c17.6,9.7,29,25,29,42.4C186.2,96.8,175.4,111.7,158.6,121.5z" />
    </g>
</svg>
