<?xml version="1.0" standalone="yes"?>
<svg version="1.1" viewBox="0.0 0.0 35.0 35.0" fill="none" stroke="none" stroke-linecap="square" stroke-miterlimit="10" xmlns="http://www.w3.org/2000/svg" xmlns:xlink="http://www.w3.org/1999/xlink">
    <title>Checkbox</title>
    <clipPath id="p.0">
        <path d="m0 0l35.0 0l0 35.0l-35.0 0l0 -35.0z" clip-rule="nonzero"></path>
    </clipPath>
    <g clip-path="url(#p.0)">
        <path fill="#000000" fill-opacity="0.0" d="m0 0l35.0 0l0 35.0l-35.0 0z" fill-rule="nonzero"></path>
        <path fill="#000000" fill-opacity="0.0" d="m0.003937008 -0.09186352l34.992126 0l0 35.1811l-34.992126 0z" fill-rule="nonzero"></path>
        <path fill="#ffffff" d="m25.896996 8.5916815l-10.674822 0l0 -4.190652l10.674822 0z" fill-rule="nonzero"></path>
        <path stroke="#434343" stroke-width="1.0" stroke-linejoin="round" stroke-linecap="butt" d="m25.896996 8.5916815l-10.674822 0l0 -4.190652l10.674822 0z" fill-rule="nonzero"></path>
        <path fill="#ffffff" d="m25.896996 15.029623l-10.674822 0l0 -10.58691l10.674822 0z" fill-rule="nonzero"></path>
        <path stroke="#434343" stroke-width="1.0" stroke-linejoin="round" stroke-linecap="butt" d="m25.896996 15.029623l-10.674822 0l0 -10.58691l10.674822 0z" fill-rule="nonzero"></path>
        <path fill="#434343" d="m25.896996 21.625803l-10.674822 0l0 -4.190653l10.674822 0z" fill-rule="nonzero"></path>
        <path stroke="#434343" stroke-width="1.0" stroke-linejoin="round" stroke-linecap="butt" d="m25.896996 21.625803l-10.674822 0l0 -4.190653l10.674822 0z" fill-rule="nonzero"></path>
        <path fill="#434343" d="m25.896996 28.063744l-10.674822 0l0 -10.58691l10.674822 0z" fill-rule="nonzero"></path>
        <path stroke="#434343" stroke-width="1.0" stroke-linejoin="round" stroke-linecap="butt" d="m25.896996 28.063744l-10.674822 0l0 -10.58691l10.674822 0z" fill-rule="nonzero"></path>
        <path fill="#000000" fill-opacity="0.0" d="m3.7754266 8.206823l33.763783 0l0 22.3937l-33.763783 0z" fill-rule="nonzero"></path>
        <path fill="#ffffff" d="m17.563566 21.980574q0.03125 -0.125 0.15625 -0.34375q0.15625 -0.21875 0.28125 -0.375q0.3125 -0.25 0.59375 -0.25q0.40625 0 0.40625 0.375q0.0625 0.5 0.21875 1.15625q0.09375 0.3125 0.28125 0.3125q0.125 0 0.21875 -0.15625q0.40625 -0.375 0.84375 -0.8125q0.6875 -0.65625 0.9375 -0.96875q0.3125 -0.375 0.84375 -0.875q0.53125 -0.46875 0.8125 -0.65625q0.25 -0.15625 0.4375 -0.125q0.1875 0.03125 0.15625 0.28125q-0.03125 0.25 0 0.5q0.03125 0.1875 0 0.21875q-0.625 0.75 -1.0 1.09375q-0.90625 1.0625 -1.21875 1.3125q-1.1875 1.15625 -2.0625 2.0q-0.3125 0.28125 -0.59375 0.3125q-0.375 0.03125 -0.71875 -0.28125q-0.40625 -0.34375 -0.4375 -0.8125q-0.03125 -0.53125 -0.09375 -0.78125q-0.09375 -0.4375 -0.0625 -1.125z" fill-rule="nonzero"></path>
        <path fill="#000000" fill-opacity="0.0" d="m3.1587927 -0.090749085l34.992123 0l0 35.181103l-34.992123 0z" fill-rule="nonzero"></path>
    </g>
</svg>
