<?xml version="1.0" encoding="utf-8"?>
<!DOCTYPE svg PUBLIC "-//W3C//DTD SVG 1.1//EN" "http://www.w3.org/Graphics/SVG/1.1/DTD/svg11.dtd">
<svg version="1.1" xmlns="http://www.w3.org/2000/svg" xmlns:xlink="http://www.w3.org/1999/xlink" x="0px" y="0px" viewBox="0 0 1000 1000" enable-background="new 0 0 1000 1000" xml:space="preserve">
    <title>Comment Icon</title>
    <g>
        <path d="M990,640c0,60.5-23.2,142.7-69.5,246.6c-1.1,2.6-3,6.9-5.7,13.1c-2.7,6.2-5.2,11.7-7.4,16.4c-2.2,4.7-4.6,8.8-7.1,12c-4.4,6.2-9.5,9.3-15.3,9.3c-5.5,0-9.8-1.8-12.9-5.5c-3.1-3.6-4.6-8.2-4.6-13.7c0-3.3,0.5-8.1,1.4-14.5s1.4-10.7,1.4-12.9c1.8-24.8,2.7-47.2,2.7-67.3c0-36.8-3.2-69.8-9.6-99s-15.2-54.4-26.5-75.7s-25.9-39.7-43.8-55.2c-17.9-15.5-37.1-28.2-57.7-38s-44.8-17.6-72.7-23.2c-27.9-5.7-56-9.6-84.2-11.8c-28.3-2.2-60.2-3.3-96-3.3H360v140c0,9.5-3.5,17.7-10.4,24.6c-6.9,6.9-15.1,10.4-24.6,10.4c-9.5,0-17.7-3.5-24.6-10.4l-280-280C13.5,395.2,10,387,10,377.5c0-9.5,3.5-17.7,10.4-24.6l280-280c6.9-6.9,15.1-10.4,24.6-10.4c9.5,0,17.7,3.5,24.6,10.4C356.5,79.8,360,88,360,97.5v140h122.5C742.4,237.5,902,311,961,457.9C980.3,506.7,990,567.4,990,640L990,640z" />
    </g>
</svg>