<?xml version="1.0" encoding="utf-8"?>
<!DOCTYPE svg PUBLIC "-//W3C//DTD SVG 1.1//EN" "http://www.w3.org/Graphics/SVG/1.1/DTD/svg11.dtd">
<svg version="1.1" xmlns="http://www.w3.org/2000/svg" x="0px" y="0px" viewBox="0 0 1000 1000" >
    <title>Error</title>
    <g>
        <path d="M500,990C229.8,990,10,770.2,10,500C10,229.8,229.8,10,500,10c270.2,0,490,219.8,490,490C990,770.2,770.2,990,500,990z M500,60.4C257.6,60.4,60.4,257.6,60.4,500c0,242.4,197.2,439.6,439.6,439.6c242.4,0,439.6-197.2,439.6-439.6C939.6,257.6,742.4,60.4,500,60.4z M429.3,746.1c0-19.1,6.7-35,20-47.6c18.1-17.1,36.4-25.6,54.8-25.6c20.2,0,37.5,7.2,51.8,21.5c14.4,14.3,21.5,31.8,21.5,52.3c0,20.8-6.8,38.2-20.3,52.2c-13.5,14.1-30.6,21.1-51.5,21.1c-21.9,0-40.1-7.4-54.5-22.1C436.6,783.2,429.3,765.9,429.3,746.1z M526.2,614c-8.9,0.6-25.2-0.3-48.6,0l-36.4-164.2c-12.7-64.1-21.3-110.8-25.5-139.9c-2.2-18.3-3.2-31.8-3.2-40.6c0-2.1,0.8-7.4,2.5-15.9c1.8-17.7,8.2-30.7,19.5-39.3c11.3-8.5,27.2-13.5,47.6-15c11.5-1.8,18.9-2.6,22.4-2.6c23.4,0,43.1,6,59.1,17.9c16,11.9,24,28.8,24,50.5c0,20.3-3.4,54.5-10.2,102.4l-27.5,142.6C543,551.3,535.1,586.9,526.2,614z" />
    </g>
</svg>