<?xml version="1.0" encoding="utf-8"?>
<svg height="179.708px" width="190px" xmlns="http://www.w3.org/2000/svg" xmlns:bx="https://boxy-svg.com">
  <title>Home</title>
  <g transform="matrix(0.394488, 0, 0, 0.394488, 0, -0.000184)" bx:origin="0 0.000002">
    <g id="layer1">
      <path fill="#4993C5" stroke-width="0.4" stroke-miterlimit="4" id="rect2391" d="m394.805786,223.09549l0,0zm0,0l-162.8125,-144.1875l-162.90625,144.25l0,206.125c0,5.323364 4.30162,9.59375 9.625,9.59375l101.812515,0l0,-90.375c0,-5.323425 4.27037,-9.625 9.59375,-9.625l83.656235,0c5.323364,0 9.59375,4.301636 9.59375,9.625l0,90.375l101.84375,0c5.323364,0 9.593781,-4.270325 9.59375,-9.59375l0,-206.1875zm-325.71875,0.0625l0,0z"/>
      <path fill="#4993C5" stroke-width="0.4" stroke-miterlimit="4" id="path2399" d="m231.048492,-0.000305l-231.0485,204.583557l24.338306,27.457397l207.655384,-183.884186l207.608124,183.884186l24.291046,-27.457397l-231.001251,-204.583557l-0.897919,1.039703l-0.94519,-1.039703z"/>
      <path fill="#4993C5" stroke-width="0.4" stroke-miterlimit="4" id="rect2404" d="m69.087036,29.44873l58.571442,0l-0.510376,34.691101l-58.061066,52.451752l0,-87.142853z"/>
    </g>
  </g>
</svg>