<?xml version="1.0" ?>
<svg id="Layer_1" style="enable-background:new 0 0 512 512;" version="1.1" viewBox="0 0 512 512" xml:space="preserve" xmlns="http://www.w3.org/2000/svg" xmlns:xlink="http://www.w3.org/1999/xlink">
    <title>Lock Icon</title>
    <path d="M326.6,223.6h-5.4v-40.4c0-38.1-29.2-69.1-65.2-69.1s-65.2,31-65.2,69.1v40.4h-5.4c-14.7,0-26.6,11.9-26.6,26.6v121.1  c0,14.7,11.9,26.6,26.6,26.6h141.2c14.7,0,26.6-11.9,26.6-26.6V250.2C353.2,235.5,341.3,223.6,326.6,223.6z M219.1,183.3  c0-21.6,16.6-39.1,36.9-39.1s36.9,17.6,36.9,39.1v40.4h-73.8V183.3z M274.3,303l-2.6,32.3h-31.4l-2.6-32.3l-0.8-10.6  c0-7.8,4.7-14.5,11.4-17.5c2.4-1,5-1.6,7.7-1.6s5.4,0.6,7.7,1.6c2.2,1,4.1,2.3,5.8,4c3.5,3.5,5.6,8.2,5.6,13.5L274.3,303z" />
</svg>