<?xml version="1.0" encoding="utf-8"?>
<svg viewBox="0 0 48 48" fill="none" xmlns="http://www.w3.org/2000/svg">
    <title>Login With Github</title>
    <path fill-rule="evenodd" clip-rule="evenodd" d="M 24 0 C 10.74 0 0 11.012 0 24.607 C 0 35.496 6.87 44.693 16.41 47.953 C 17.61 48.168 18.06 47.43 18.06 46.784 C 18.06 46.2 18.03 44.262 18.03 42.201 C 12 43.339 10.44 40.694 9.96 39.31 C 9.69 38.602 8.521 36.418 7.5 35.834 C 6.66 35.373 5.46 34.235 7.47 34.204 C 9.36 34.173 10.71 35.988 11.16 36.726 C 13.32 40.448 16.77 39.402 18.15 38.756 C 18.36 37.157 18.99 36.08 19.68 35.465 C 14.34 34.85 8.76 32.727 8.76 23.315 C 8.76 20.639 9.69 18.425 11.22 16.702 C 10.98 16.087 10.14 13.565 11.46 10.181 C 11.46 10.181 13.47 9.535 18.06 12.703 C 19.98 12.15 22.02 11.873 24.06 11.873 C 26.1 11.873 28.14 12.15 30.06 12.703 C 34.65 9.504 36.66 10.181 36.66 10.181 C 37.98 13.565 37.14 16.087 36.9 16.702 C 38.43 18.425 39.361 20.608 39.361 23.315 C 39.361 32.758 33.75 34.85 28.41 35.465 C 29.28 36.234 30.03 37.71 30.03 40.017 C 30.03 43.308 30 45.954 30 46.784 C 30 47.43 30.45 48.199 31.651 47.953 C 41.13 44.693 48 35.465 48 24.607 C 48 11.012 37.26 0 24 0 Z" fill="#1B1F23" style=""/>
</svg>
