<?xml version="1.0" ?>
<svg id="Layer_1" style="enable-background:new 0 0 512 512;" version="1.1" viewBox="0 0 512 512" xml:space="preserve" xmlns="http://www.w3.org/2000/svg" xmlns:xlink="http://www.w3.org/1999/xlink">
    <title>Message Icon</title>
    <style type="text/css">
    .st0 {
        fill: #231F20;
    }
    </style>
    <path class="st0" d="M355.1,130.4H156.9c-14.3,0-25.9,11.6-25.9,25.9v138.5c0,14.3,11.6,25.9,25.9,25.9h17.3v60.8l57-60.8h123.9  c14.3,0,25.9-11.6,25.9-25.9V156.3C381,142,369.4,130.4,355.1,130.4z M205.5,242.8c-9.5,0-17.2-7.7-17.2-17.2  c0-9.5,7.7-17.2,17.2-17.2c9.5,0,17.2,7.7,17.2,17.2C222.7,235.1,215,242.8,205.5,242.8z M256,242.8c-9.5,0-17.2-7.7-17.2-17.2  c0-9.5,7.7-17.2,17.2-17.2c9.5,0,17.2,7.7,17.2,17.2C273.2,235.1,265.5,242.8,256,242.8z M306.5,242.8c-9.5,0-17.2-7.7-17.2-17.2  c0-9.5,7.7-17.2,17.2-17.2c9.5,0,17.2,7.7,17.2,17.2C323.7,235.1,316,242.8,306.5,242.8z" />
</svg>