<?xml version="1.0" encoding="utf-8"?>
<!DOCTYPE svg PUBLIC "-//W3C//DTD SVG 1.1//EN" "http://www.w3.org/Graphics/SVG/1.1/DTD/svg11.dtd">
<svg version="1.1" xmlns="http://www.w3.org/2000/svg" xmlns:xlink="http://www.w3.org/1999/xlink" x="0px" y="0px" viewBox="0 0 1000 1000" enable-background="new 0 0 1000 1000" xml:space="preserve">
    <title>Multi-Edit Icon</title>
    <style type="text/css">
    .st0 {
        fill: #fff;
    }
    </style>
    <g class="st0">
        <path d="M990,347.6v562.3c0,44.2-35.9,80.1-80.1,80.1H90.1C45.9,990,10,954.2,10,909.9V90.1C10,45.8,45.9,10,90.1,10h562.3l-82.6,82.5H92.5v814.9h814.9V430.2L990,347.6z M238.7,565.4l195.9,195.9l485.6-485.6L724.3,79.8C613.3,190.9,353.3,450.8,238.7,565.4z M971.8,224c20.8-20.8,20.8-54.6,0-75.5L851.4,28.1c-20.8-20.8-54.6-20.8-75.5,0C775,29,768.3,35.7,757,47l195.9,195.9L971.8,224z M182.7,621.4c-2.6,2.6-4.1,6.1-4.1,9.8v176.2c0,7.7,6.2,13.9,13.9,13.9h176.2c3.7,0,7.2-1.5,9.8-4.1l23.2-23.2L205.9,598.3C191.1,613,182.7,621.4,182.7,621.4z" />
    </g>
</svg>