<svg id="Layer_1" data-name="Layer 1" xmlns="http://www.w3.org/2000/svg" viewBox="0 0 32 32">
    <title>Notification</title>
    <defs>
        <style>
        .cls-1 {
            fill: #FFFFFF;
        }
        </style>
    </defs>
    <path class="cls-1" d="M29.7,25.9V12.1l-1.2,1.2c-3.2,2.5-5.7,4.5-7.6,6q-.9.75-1.5,1.2a9.88,9.88,0,0,1-1.5.9,4.21,4.21,0,0,1-1.8.4h0a3.92,3.92,0,0,1-1.8-.4,6.56,6.56,0,0,1-1.5-.9q-.6-.45-1.5-1.2c-1.9-1.6-4.4-3.6-7.6-6a13.58,13.58,0,0,1-1.2-1.2V25.8a.52.52,0,0,0,.2.4.52.52,0,0,0,.4.2H29.4a.52.52,0,0,0,.4-.2.37.37,0,0,1-.1-.3Zm0-18.8V6.5c0-.1,0-.2-.1-.2s-.1,0-.1-.2-.1-.2-.2-.1H2.9c-.2-.1-.3-.1-.4,0a.4.4,0,0,0-.2.4,6.44,6.44,0,0,0,2.6,5.1q3.45,2.7,7.2,5.7a7.37,7.37,0,0,1,.6.5c.3.3.6.5.8.7s.5.3.8.6a4.05,4.05,0,0,0,.9.5,2.35,2.35,0,0,0,.8.2h0a3.09,3.09,0,0,0,.8-.2,4.05,4.05,0,0,0,.9-.5,5.55,5.55,0,0,0,.8-.6c.2-.2.5-.4.8-.7a4.43,4.43,0,0,1,.6-.5q3.75-3,7.2-5.7a9.78,9.78,0,0,0,1.8-2.1,4,4,0,0,0,.8-2.3ZM32,6.4V25.8a2.79,2.79,0,0,1-.8,2,2.57,2.57,0,0,1-2,.8H2.9a2.79,2.79,0,0,1-2-.8A2.84,2.84,0,0,1,0,25.9V6.4a2.79,2.79,0,0,1,.8-2,2.79,2.79,0,0,1,2-.8H29.1a2.79,2.79,0,0,1,2,.8A2.88,2.88,0,0,1,32,6.4Z" />
</svg>