<?xml version="1.0" encoding="utf-8"?>
<svg id="Layer_1" style="enable-background:new 0 0 512 512;" version="1.1" viewBox="0 0 512 512" xmlns="http://www.w3.org/2000/svg">
    <title>Replay Icon</title>
    <style type="text/css">
    .st0 {
        fill: #ffffff;
    }
    </style>
    <g transform="matrix(1.894174, 0, 0, 1.930941, -210.063934, -257.673279)">
        <g>
            <path class="st0" d="M328.7,398.6H155.6c-24.7,0-44.7-20.1-44.7-44.7V180.7c0-24.7,20.1-44.7,44.7-44.7h105.6c11,0,20,9,20,20    s-9,20-20,20H155.6c-2.6,0-4.7,2.1-4.7,4.7v173.1c0,2.6,2.1,4.7,4.7,4.7h173.1c2.6,0,4.7-2.1,4.7-4.7V251.2c0-11,9-20,20-20 s20,9,20,20v102.7C373.4,378.5,353.4,398.6,328.7,398.6z" />
        </g>
        <g>
            <g>
                <rect class="st0" height="116" transform="matrix(-0.6844 -0.7291 0.7291 -0.6844 329.9216 582.7335)" width="50.9" x="265.7" y="162" />
            </g>
            <g>
                <path class="st0" d="M354.8,135.9l24.3,25.9c2.9,3.1,2.8,8-0.3,10.9l-21.8,20.5L322,156l21.8-20.5 C347,132.6,351.8,132.8,354.8,135.9z" />
            </g>
            <g>
                <polygon class="st0" points="225.3,246.8 260.1,283.9 210.9,295.2" />
            </g>
        </g>
    </g>
</svg>